<?xml version="1.0" encoding="utf-8"?>
<!-- Generator: Adobe Illustrator 24.0.0, SVG Export Plug-In . SVG Version: 6.00 Build 0)  -->
<svg version="1.1" id="Calque_1" xmlns="http://www.w3.org/2000/svg" xmlns:xlink="http://www.w3.org/1999/xlink" x="0px" y="0px"
	 viewBox="0 0 91 75.9" style="enable-background:new 0 0 91 75.9;" xml:space="preserve">
<style type="text/css">
	.st0{fill:none;stroke:#000000;stroke-width:4;stroke-miterlimit:10;}
</style>
<path class="st0" d="M84.5,7.9v42.4c0,0.8-0.6,1.4-1.4,1.4H7.8c-0.8,0-1.4-0.6-1.4-1.4V7.9c0-0.8,0.6-1.4,1.4-1.4h75.3
	C83.9,6.5,84.5,7.1,84.5,7.9z"/>
<path class="st0" d="M72.2,68.5c0,0.9-0.8,1.7-1.7,1.7h-50c-0.9,0-1.7-0.8-1.7-1.7c0-2.1,0.9-4,2.3-5.4s3.3-2.3,5.4-2.3h11.4v-9.2
	h15.4v9.2h11.4C68.8,60.9,72.2,64.3,72.2,68.5z"/>
<g>
	<path d="M33.1,36.8l-9.2-7.7l9.2-7.7l2.1,2.2L28.4,29l6.8,5.6L33.1,36.8z"/>
	<path d="M42,39.4h-3.2l9.5-22.2h3.2L42,39.4z"/>
	<path d="M57.9,21.3l9.2,7.7l-9.2,7.7l-2.1-2.2l6.7-5.6l-6.7-5.6L57.9,21.3z"/>
</g>
</svg>
