<?xml version="1.0" encoding="utf-8"?>
<!-- Generator: Adobe Illustrator 24.0.0, SVG Export Plug-In . SVG Version: 6.00 Build 0)  -->
<svg version="1.1" id="Calque_1" xmlns="http://www.w3.org/2000/svg" xmlns:xlink="http://www.w3.org/1999/xlink" x="0px" y="0px"
	 viewBox="0 0 323.5 383.7" style="enable-background:new 0 0 323.5 383.7;" xml:space="preserve">
<style type="text/css">
	.st0{fill:none;}
</style>
<rect x="103" y="92.2" width="92" height="12.3"/>
<path d="M163,35.3v292.2h-28V35.3c0-7.6,6.3-13.8,14-13.8c3.9,0,7.4,1.5,9.9,4C161.4,28,163,31.5,163,35.3z"/>
<rect x="135" y="333.5" width="28" height="6"/>
<rect x="135" y="343.5" width="28" height="5"/>
<rect x="135" y="351.5" width="28" height="4"/>
<path d="M163,357.5v1.4c0,0.2,0,0.4,0,0.6h-28c0-0.2,0-0.4,0-0.6v-1.4H163z"/>
<path d="M162.4,361.5c-0.2,0.3-0.4,0.5-0.7,0.8h-25.5c-0.3-0.2-0.5-0.5-0.7-0.8H162.4z"/>
<rect x="103" y="193.2" width="92" height="12.3"/>
<rect x="103" y="193.2" width="92" height="12.3"/>
<rect x="119" y="296.2" width="9" height="12.3"/>
<rect x="170" y="296.2" width="9" height="12.3"/>
<rect x="103" y="296.2" width="9" height="12.3"/>
<rect x="186" y="296.2" width="9" height="12.3"/>
<g>
	<path d="M30.9,110.8c-0.1,0-0.2-0.1-0.2-0.2v-4c0,0,0-0.1,0.1-0.1l8.6-11.9c0.2-0.2,0.3-0.5,0.4-0.8c0.1-0.3,0.2-0.6,0.2-0.9
		c0-0.7-0.2-1.3-0.7-1.9c-0.5-0.6-1.1-0.9-1.9-0.9c-0.7,0-1.3,0.3-1.8,0.8c-0.5,0.5-0.8,1.2-0.8,2.1v1.7c0,0.1-0.1,0.2-0.2,0.2h-3.9
		c-0.1,0-0.1-0.1-0.1-0.2v-1.7c0-1.3,0.3-2.5,1-3.6c0.6-1.1,1.5-1.9,2.5-2.6c1-0.6,2.2-0.9,3.3-0.9c1.3,0,2.4,0.3,3.4,1
		c1,0.6,1.8,1.5,2.5,2.5c0.6,1,0.9,2.2,0.9,3.4c0,0.8-0.1,1.6-0.4,2.3c-0.3,0.8-0.6,1.5-1.1,2.1l-6.6,9.1h7.9c0.1,0,0.1,0,0.1,0.1v4
		c0,0.1,0,0.2-0.1,0.2H30.9z"/>
	<path d="M53.9,111.1c-1.5,0-2.8-0.3-4-1c-1.1-0.6-2-1.5-2.7-2.6c-0.6-1.1-1-2.2-1-3.5l0-11.1c0-1.3,0.3-2.4,1-3.5
		c0.6-1,1.5-1.9,2.7-2.5c1.1-0.6,2.4-0.9,3.9-0.9c1.5,0,2.8,0.3,3.9,0.9c1.1,0.6,2,1.5,2.6,2.5c0.6,1,1,2.2,1,3.5l0,11.1
		c0,1.3-0.3,2.5-1,3.5c-0.6,1.1-1.5,1.9-2.7,2.6S55.4,111.1,53.9,111.1z M57.2,104.1l0-11.1c0-0.8-0.3-1.5-0.9-2
		c-0.6-0.5-1.4-0.8-2.4-0.8c-1,0-1.8,0.3-2.4,0.8c-0.6,0.5-0.9,1.2-0.9,2v11.1c0,0.9,0.3,1.5,0.9,2c0.6,0.5,1.4,0.8,2.4,0.8
		c1,0,1.8-0.3,2.4-0.8C56.9,105.7,57.2,105,57.2,104.1z"/>
	<path d="M63.7,110.8c-0.1,0-0.2-0.1-0.2-0.2v-4c0,0,0-0.1,0.1-0.1l8.6-11.9c0.2-0.2,0.3-0.5,0.4-0.8c0.1-0.3,0.2-0.6,0.2-0.9
		c0-0.7-0.2-1.3-0.7-1.9c-0.5-0.6-1.1-0.9-1.9-0.9c-0.7,0-1.3,0.3-1.8,0.8c-0.5,0.5-0.8,1.2-0.8,2.1v1.7c0,0.1-0.1,0.2-0.2,0.2h-3.9
		c-0.1,0-0.1-0.1-0.1-0.2v-1.7c0-1.3,0.3-2.5,1-3.6c0.6-1.1,1.5-1.9,2.5-2.6c1-0.6,2.2-0.9,3.3-0.9c1.3,0,2.4,0.3,3.4,1
		c1,0.6,1.8,1.5,2.5,2.5c0.6,1,0.9,2.2,0.9,3.4c0,0.8-0.1,1.6-0.4,2.3c-0.3,0.8-0.6,1.5-1.1,2.1l-6.6,9.1h7.9c0.1,0,0.1,0,0.1,0.1v4
		c0,0.1,0,0.2-0.1,0.2H63.7z"/>
	<path d="M86.8,111.1c-1.5,0-2.8-0.3-4-1c-1.1-0.6-2-1.5-2.7-2.6c-0.6-1.1-1-2.2-1-3.5l0-11.1c0-1.3,0.3-2.4,1-3.5
		c0.6-1,1.5-1.9,2.7-2.5c1.1-0.6,2.4-0.9,3.9-0.9c1.5,0,2.8,0.3,3.9,0.9c1.1,0.6,2,1.5,2.6,2.5c0.6,1,1,2.2,1,3.5l0,11.1
		c0,1.3-0.3,2.5-1,3.5c-0.6,1.1-1.5,1.9-2.7,2.6S88.3,111.1,86.8,111.1z M90.1,104.1l0-11.1c0-0.8-0.3-1.5-0.9-2
		c-0.6-0.5-1.4-0.8-2.4-0.8c-1,0-1.8,0.3-2.4,0.8c-0.6,0.5-0.9,1.2-0.9,2v11.1c0,0.9,0.3,1.5,0.9,2c0.6,0.5,1.4,0.8,2.4,0.8
		c1,0,1.8-0.3,2.4-0.8C89.8,105.7,90.1,105,90.1,104.1z"/>
</g>
<g>
	<path d="M32.6,298.5c-0.1,0-0.2-0.1-0.2-0.2v-4c0,0,0-0.1,0.1-0.1l8.6-11.9c0.2-0.2,0.3-0.5,0.4-0.8c0.1-0.3,0.2-0.6,0.2-0.9
		c0-0.7-0.2-1.3-0.7-1.9c-0.5-0.6-1.1-0.9-1.9-0.9c-0.7,0-1.3,0.3-1.8,0.8c-0.5,0.5-0.8,1.2-0.8,2.1v1.7c0,0.1-0.1,0.2-0.2,0.2h-3.9
		c-0.1,0-0.1-0.1-0.1-0.2v-1.7c0-1.3,0.3-2.5,1-3.6c0.6-1.1,1.5-1.9,2.5-2.6c1-0.6,2.2-0.9,3.3-0.9c1.3,0,2.4,0.3,3.4,1
		c1,0.6,1.8,1.5,2.5,2.5c0.6,1,0.9,2.2,0.9,3.4c0,0.8-0.1,1.6-0.4,2.3c-0.3,0.8-0.6,1.5-1.1,2.1l-6.6,9.1h7.9c0.1,0,0.1,0,0.1,0.1v4
		c0,0.1,0,0.2-0.1,0.2H32.6z"/>
	<path d="M55.6,298.9c-1.5,0-2.8-0.3-4-1c-1.1-0.6-2-1.5-2.7-2.6c-0.6-1.1-1-2.2-1-3.5l0-11.1c0-1.3,0.3-2.4,1-3.5
		c0.6-1,1.5-1.9,2.7-2.5c1.1-0.6,2.4-0.9,3.9-0.9c1.5,0,2.8,0.3,3.9,0.9c1.1,0.6,2,1.5,2.6,2.5c0.6,1,1,2.2,1,3.5l0,11.1
		c0,1.3-0.3,2.5-1,3.5c-0.6,1.1-1.5,1.9-2.7,2.6S57.1,298.9,55.6,298.9z M58.9,291.9l0-11.1c0-0.8-0.3-1.5-0.9-2
		c-0.6-0.5-1.4-0.8-2.4-0.8c-1,0-1.8,0.3-2.4,0.8c-0.6,0.5-0.9,1.2-0.9,2v11.1c0,0.9,0.3,1.5,0.9,2c0.6,0.5,1.4,0.8,2.4,0.8
		c1,0,1.8-0.3,2.4-0.8C58.6,293.4,58.9,292.7,58.9,291.9z"/>
	<path d="M65.4,298.5c-0.1,0-0.2-0.1-0.2-0.2v-4c0,0,0-0.1,0.1-0.1l8.6-11.9c0.2-0.2,0.3-0.5,0.4-0.8c0.1-0.3,0.2-0.6,0.2-0.9
		c0-0.7-0.2-1.3-0.7-1.9c-0.5-0.6-1.1-0.9-1.9-0.9c-0.7,0-1.3,0.3-1.8,0.8c-0.5,0.5-0.8,1.2-0.8,2.1v1.7c0,0.1-0.1,0.2-0.2,0.2h-3.9
		c-0.1,0-0.1-0.1-0.1-0.2v-1.7c0-1.3,0.3-2.5,1-3.6c0.6-1.1,1.5-1.9,2.5-2.6c1-0.6,2.2-0.9,3.3-0.9c1.3,0,2.4,0.3,3.4,1
		c1,0.6,1.8,1.5,2.5,2.5c0.6,1,0.9,2.2,0.9,3.4c0,0.8-0.1,1.6-0.4,2.3c-0.3,0.8-0.6,1.5-1.1,2.1l-6.6,9.1h7.9c0.1,0,0.1,0,0.1,0.1v4
		c0,0.1,0,0.2-0.1,0.2H65.4z"/>
	<path d="M80.8,298.5c-0.1,0-0.2-0.1-0.2-0.2v-4c0,0,0-0.1,0.1-0.1l8.6-11.9c0.2-0.2,0.3-0.5,0.4-0.8c0.1-0.3,0.2-0.6,0.2-0.9
		c0-0.7-0.2-1.3-0.7-1.9c-0.5-0.6-1.1-0.9-1.9-0.9c-0.7,0-1.3,0.3-1.8,0.8c-0.5,0.5-0.8,1.2-0.8,2.1v1.7c0,0.1-0.1,0.2-0.2,0.2h-3.9
		c-0.1,0-0.1-0.1-0.1-0.2v-1.7c0-1.3,0.3-2.5,1-3.6c0.6-1.1,1.5-1.9,2.5-2.6c1-0.6,2.2-0.9,3.3-0.9c1.3,0,2.4,0.3,3.4,1
		c1,0.6,1.8,1.5,2.5,2.5c0.6,1,0.9,2.2,0.9,3.4c0,0.8-0.1,1.6-0.4,2.3c-0.3,0.8-0.6,1.5-1.1,2.1l-6.6,9.1h7.9c0.1,0,0.1,0,0.1,0.1v4
		c0,0.1,0,0.2-0.1,0.2H80.8z"/>
	<path d="M32.6,331.5c-0.1,0-0.2-0.1-0.2-0.2v-4c0,0,0-0.1,0.1-0.1l8.6-11.9c0.2-0.2,0.3-0.5,0.4-0.8c0.1-0.3,0.2-0.6,0.2-0.9
		c0-0.7-0.2-1.3-0.7-1.9c-0.5-0.6-1.1-0.9-1.9-0.9c-0.7,0-1.3,0.3-1.8,0.8c-0.5,0.5-0.8,1.2-0.8,2.1v1.7c0,0.1-0.1,0.2-0.2,0.2h-3.9
		c-0.1,0-0.1-0.1-0.1-0.2v-1.7c0-1.3,0.3-2.5,1-3.6c0.6-1.1,1.5-1.9,2.5-2.6c1-0.6,2.2-0.9,3.3-0.9c1.3,0,2.4,0.3,3.4,1
		c1,0.6,1.8,1.5,2.5,2.5c0.6,1,0.9,2.2,0.9,3.4c0,0.8-0.1,1.6-0.4,2.3c-0.3,0.8-0.6,1.5-1.1,2.1l-6.6,9.1h7.9c0.1,0,0.1,0,0.1,0.1v4
		c0,0.1,0,0.2-0.1,0.2H32.6z"/>
	<path d="M55.6,331.9c-1.5,0-2.8-0.3-4-1c-1.1-0.6-2-1.5-2.7-2.6c-0.6-1.1-1-2.2-1-3.5l0-11.1c0-1.3,0.3-2.4,1-3.5
		c0.6-1,1.5-1.9,2.7-2.5c1.1-0.6,2.4-0.9,3.9-0.9c1.5,0,2.8,0.3,3.9,0.9c1.1,0.6,2,1.5,2.6,2.5c0.6,1,1,2.2,1,3.5l0,11.1
		c0,1.3-0.3,2.5-1,3.5s-1.5,1.9-2.7,2.6C58.4,331.6,57.1,331.9,55.6,331.9z M58.9,324.9l0-11.1c0-0.8-0.3-1.5-0.9-2
		c-0.6-0.5-1.4-0.8-2.4-0.8c-1,0-1.8,0.3-2.4,0.8c-0.6,0.5-0.9,1.2-0.9,2v11.1c0,0.9,0.3,1.5,0.9,2c0.6,0.5,1.4,0.8,2.4,0.8
		c1,0,1.8-0.3,2.4-0.8C58.6,326.4,58.9,325.7,58.9,324.9z"/>
	<path d="M65.4,331.5c-0.1,0-0.2-0.1-0.2-0.2v-4c0,0,0-0.1,0.1-0.1l8.6-11.9c0.2-0.2,0.3-0.5,0.4-0.8c0.1-0.3,0.2-0.6,0.2-0.9
		c0-0.7-0.2-1.3-0.7-1.9c-0.5-0.6-1.1-0.9-1.9-0.9c-0.7,0-1.3,0.3-1.8,0.8c-0.5,0.5-0.8,1.2-0.8,2.1v1.7c0,0.1-0.1,0.2-0.2,0.2h-3.9
		c-0.1,0-0.1-0.1-0.1-0.2v-1.7c0-1.3,0.3-2.5,1-3.6c0.6-1.1,1.5-1.9,2.5-2.6c1-0.6,2.2-0.9,3.3-0.9c1.3,0,2.4,0.3,3.4,1
		c1,0.6,1.8,1.5,2.5,2.5c0.6,1,0.9,2.2,0.9,3.4c0,0.8-0.1,1.6-0.4,2.3c-0.3,0.8-0.6,1.5-1.1,2.1l-6.6,9.1h7.9c0.1,0,0.1,0,0.1,0.1v4
		c0,0.1,0,0.2-0.1,0.2H65.4z"/>
	<path d="M87.3,331.9c-1.2,0-2.4-0.3-3.4-1c-1-0.6-1.9-1.5-2.5-2.6c-0.6-1.1-0.9-2.3-0.9-3.5v-1.6c0-0.1,0-0.2,0.1-0.2h3.9
		c0.1,0,0.2,0.1,0.2,0.2v1.6c0,0.8,0.2,1.4,0.7,2c0.5,0.5,1.1,0.8,1.9,0.8c0.8,0,1.5-0.3,1.9-0.9c0.5-0.6,0.7-1.2,0.7-1.9v-0.9
		c0-0.7-0.2-1.4-0.7-2c-0.5-0.6-1-0.9-1.7-0.9h-1.4c-0.1,0-0.2-0.1-0.2-0.2l0-3.9c0-0.1,0-0.1,0.1-0.1h1.4c0.6,0,1.2-0.2,1.7-0.7
		c0.5-0.5,0.7-1.1,0.7-1.9v-0.5c0-0.7-0.3-1.4-0.8-1.9c-0.5-0.5-1.1-0.8-1.9-0.8c-0.7,0-1.3,0.3-1.8,0.8c-0.5,0.5-0.8,1.2-0.8,1.9
		v1.7c0,0.1,0,0.2-0.1,0.2h-3.9c-0.1,0-0.1-0.1-0.1-0.2v-1.9c0-1.3,0.3-2.4,1-3.4c0.6-1,1.5-1.8,2.5-2.4c1-0.6,2.1-0.9,3.3-0.9
		c1.3,0,2.4,0.3,3.4,0.9c1,0.6,1.9,1.4,2.5,2.5c0.6,1,0.9,2.2,0.9,3.4v0.6c0,1-0.2,1.9-0.5,2.7c-0.3,0.7-0.8,1.5-1.4,2.1
		c0.6,0.7,1.1,1.5,1.4,2.3c0.4,0.8,0.5,1.7,0.5,2.6v1c0,1.3-0.3,2.5-0.9,3.6c-0.6,1.1-1.4,1.9-2.5,2.6S88.6,331.9,87.3,331.9z"/>
</g>
<g>
	<path d="M203.5,110.8c-0.1,0-0.1-0.1-0.1-0.2l0.1-24c0-0.1,0-0.1,0.1-0.1h6.7c1.3,0,2.5,0.3,3.6,1c1,0.6,1.9,1.5,2.5,2.5
		c0.6,1,0.9,2.2,0.9,3.4c0,1-0.2,1.9-0.7,2.8c-0.5,0.9-1,1.6-1.6,2.1c0.7,0.7,1.2,1.5,1.6,2.3c0.4,0.9,0.6,1.8,0.6,2.8
		c0,1.4-0.3,2.6-1,3.7c-0.7,1.1-1.5,2-2.6,2.7c-1.1,0.7-2.3,1-3.7,1H203.5z M207.6,106.5h2.2c0.8,0,1.6-0.3,2.2-0.9
		c0.6-0.6,0.9-1.3,0.9-2.2c0-0.8-0.3-1.6-0.9-2.2c-0.6-0.6-1.3-0.9-2.2-0.9h-2.1L207.6,106.5z M207.6,96.1h2.7c0.8,0,1.5-0.3,2-0.9
		c0.5-0.6,0.8-1.2,0.8-1.9c0-0.7-0.3-1.4-0.8-1.9c-0.5-0.5-1.2-0.8-1.9-0.8h-2.7V96.1z"/>
	<path d="M217.7,110.6l4.3-24c0-0.1,0.1-0.1,0.2-0.1h5.1c0.1,0,0.2,0,0.2,0.1l4.2,24c0,0.1,0,0.2-0.1,0.2h-3.9
		c-0.1,0-0.2-0.1-0.2-0.2l-0.4-2.6h-4.8l-0.4,2.6c0,0.1-0.1,0.2-0.2,0.2h-3.9C217.8,110.8,217.7,110.7,217.7,110.6z M223,104.3h3.4
		l-1.4-9.8l-0.2-1.3l-0.1,1.3L223,104.3z"/>
	<path d="M239.6,111.1c-1.3,0-2.4-0.3-3.5-1c-1-0.6-1.9-1.5-2.5-2.6c-0.6-1.1-0.9-2.3-0.9-3.6l0-10.9c0-1.3,0.3-2.5,0.9-3.5
		c0.6-1.1,1.4-1.9,2.4-2.6c1-0.6,2.2-1,3.5-1c1.3,0,2.4,0.3,3.5,0.9c1,0.6,1.8,1.5,2.4,2.5c0.6,1.1,0.9,2.2,0.9,3.6v1.6
		c0,0.1,0,0.1-0.1,0.1h-3.9c-0.1,0-0.1,0-0.1-0.1v-1.6c0-0.8-0.3-1.4-0.8-2c-0.5-0.6-1.1-0.8-1.9-0.8c-0.8,0-1.5,0.3-1.9,0.9
		c-0.4,0.6-0.7,1.2-0.7,2V104c0,0.9,0.3,1.6,0.8,2.1c0.5,0.5,1.1,0.8,1.8,0.8c0.7,0,1.4-0.3,1.9-0.9c0.5-0.6,0.8-1.3,0.8-2v-1.6
		c0-0.1,0-0.1,0.1-0.1h4c0.1,0,0.1,0,0.1,0.1v1.6c0,1.3-0.3,2.5-0.9,3.6c-0.6,1.1-1.4,1.9-2.5,2.6
		C242,110.8,240.8,111.1,239.6,111.1z"/>
	<path d="M260.1,111.1c-1.3,0-2.4-0.3-3.4-1c-1-0.6-1.9-1.5-2.5-2.6c-0.6-1.1-0.9-2.2-0.9-3.5v-1.6c0-0.1,0.1-0.2,0.2-0.2h3.9
		c0.1,0,0.1,0.1,0.1,0.2v1.6c0,0.8,0.3,1.4,0.8,2c0.5,0.5,1.1,0.8,1.9,0.8c0.7,0,1.3-0.3,1.9-0.8c0.5-0.6,0.8-1.2,0.8-2
		c0-0.9-0.6-1.6-1.7-2.2c-0.4-0.2-1-0.5-1.7-1c-0.8-0.4-1.5-0.9-2.2-1.3c-1.3-0.7-2.2-1.7-2.9-2.8c-0.6-1.1-0.9-2.4-0.9-3.8
		c0-1.3,0.3-2.5,0.9-3.5c0.6-1,1.5-1.9,2.5-2.5c1-0.6,2.2-0.9,3.4-0.9c1.2,0,2.4,0.3,3.4,0.9c1,0.6,1.9,1.4,2.5,2.5
		c0.6,1,0.9,2.2,0.9,3.5v2.9c0,0.1,0,0.1-0.1,0.1h-3.9c-0.1,0-0.1,0-0.1-0.1l0-2.9c0-0.8-0.3-1.5-0.8-2c-0.5-0.5-1.1-0.8-1.8-0.8
		c-0.7,0-1.3,0.3-1.9,0.8c-0.5,0.5-0.8,1.2-0.8,1.9c0,0.8,0.2,1.4,0.5,1.9c0.3,0.5,0.9,1,1.8,1.5c0.1,0.1,0.3,0.2,0.7,0.4
		c0.3,0.2,0.7,0.4,1.1,0.6c0.4,0.2,0.8,0.4,1.1,0.6c0.3,0.2,0.5,0.3,0.6,0.3c1.2,0.7,2.1,1.5,2.8,2.4c0.7,0.9,1,2.1,1,3.5
		c0,1.3-0.3,2.5-0.9,3.6c-0.6,1.1-1.4,1.9-2.5,2.5C262.5,110.8,261.4,111.1,260.1,111.1z"/>
</g>
<g>
	<path d="M204.1,210.8c-0.1,0-0.2-0.1-0.2-0.2l0.1-24c0-0.1,0-0.1,0.1-0.1l6.5,0c1.3,0,2.5,0.3,3.5,0.9c1.1,0.6,1.9,1.5,2.5,2.5
		c0.6,1.1,0.9,2.2,0.9,3.5v10c0,1.4-0.3,2.6-1,3.7c-0.7,1.1-1.5,2-2.6,2.6c-1.1,0.7-2.3,1-3.7,1L204.1,210.8z M208.2,206.5h2.2
		c0.9,0,1.6-0.3,2.2-0.9c0.6-0.6,0.9-1.3,0.9-2.2v-10.1c0-0.7-0.3-1.4-0.8-1.9c-0.5-0.5-1.2-0.8-1.9-0.8l-2.4,0L208.2,206.5z"/>
	<path d="M226.7,211.1c-1.2,0-2.4-0.3-3.4-1c-1-0.6-1.9-1.5-2.5-2.6c-0.6-1.1-0.9-2.3-0.9-3.5l0.1-17.5c0-0.1,0-0.1,0.1-0.1h3.9
		c0.1,0,0.1,0,0.1,0.1V204c0,0.8,0.3,1.5,0.8,2c0.5,0.5,1.1,0.8,1.8,0.8c0.7,0,1.4-0.3,1.9-0.8c0.5-0.5,0.8-1.2,0.8-2v-17.5
		c0-0.1,0-0.1,0.1-0.1h3.9c0.1,0,0.1,0,0.1,0.1l0.1,17.5c0,1.3-0.3,2.5-0.9,3.6c-0.6,1.1-1.4,1.9-2.5,2.6
		C229.2,210.8,228,211.1,226.7,211.1z"/>
	<path d="M239.9,210.8c-0.1,0-0.1-0.1-0.1-0.2v-19.9h-4.5c-0.1,0-0.2-0.1-0.2-0.2l0-3.9c0-0.1,0-0.1,0.1-0.1h13.3
		c0.1,0,0.2,0,0.2,0.1v3.9c0,0.1,0,0.2-0.1,0.2H244l0,19.9c0,0.1,0,0.2-0.1,0.2H239.9z"/>
	<path d="M255.7,210.8c-0.1,0-0.1-0.1-0.1-0.2l0.1-24c0-0.1,0-0.1,0.1-0.1h4.3c0.1,0,0.2,0,0.2,0.1l3.2,4.6l3.2-4.6
		c0.1-0.1,0.2-0.1,0.2-0.1h4.3c0.1,0,0.1,0,0.1,0.1l0.1,24c0,0.1,0,0.2-0.1,0.2h-4c-0.1,0-0.1-0.1-0.1-0.2l0-17.8l-3.7,5.3l-3.6-5.3
		l0,17.8c0,0.1,0,0.2-0.1,0.2H255.7z"/>
	<path d="M274.5,210.8c-0.1,0-0.1-0.1-0.1-0.2l0.1-24c0-0.1,0-0.1,0.1-0.1h4.3c0.1,0,0.2,0,0.2,0.1l3.2,4.6l3.2-4.6
		c0.1-0.1,0.2-0.1,0.2-0.1h4.3c0.1,0,0.1,0,0.1,0.1l0.1,24c0,0.1,0,0.2-0.1,0.2h-4c-0.1,0-0.1-0.1-0.1-0.2l0-17.8l-3.7,5.3l-3.6-5.3
		l0,17.8c0,0.1,0,0.2-0.1,0.2H274.5z"/>
	<path d="M293.3,210.8c-0.1,0-0.2-0.1-0.2-0.2l0-24c0-0.1,0-0.1,0.1-0.1h3.9c0.1,0,0.1,0,0.1,0.1l0,24c0,0.1,0,0.2-0.1,0.2H293.3z"
		/>
</g>
<g>
	<path d="M203.2,285.5c-0.1,0-0.1-0.1-0.1-0.2l0-24c0-0.1,0.1-0.2,0.2-0.2h3.9c0.1,0,0.2,0.1,0.2,0.2l0,19.9h7.2
		c0.1,0,0.2,0.1,0.2,0.2v4c0,0.1-0.1,0.2-0.2,0.2H203.2z"/>
	<path d="M217.1,285.5c-0.1,0-0.2-0.1-0.2-0.2l0-24c0-0.1,0-0.1,0.1-0.1h3.9c0.1,0,0.1,0,0.1,0.1l0,24c0,0.1,0,0.2-0.1,0.2H217.1z"
		/>
	<path d="M230.7,285.9c-1.3,0-2.4-0.3-3.5-1c-1-0.6-1.9-1.5-2.5-2.6c-0.6-1.1-0.9-2.3-0.9-3.6l0-10.9c0-1.3,0.3-2.5,0.9-3.5
		c0.6-1.1,1.4-1.9,2.4-2.6c1-0.6,2.2-1,3.5-1c1.3,0,2.4,0.3,3.5,0.9c1,0.6,1.8,1.5,2.4,2.5c0.6,1.1,0.9,2.2,0.9,3.6v1.6
		c0,0.1,0,0.1-0.1,0.1h-3.9c-0.1,0-0.1,0-0.1-0.1v-1.6c0-0.8-0.3-1.4-0.8-2c-0.5-0.6-1.1-0.8-1.9-0.8c-0.8,0-1.5,0.3-1.9,0.9
		c-0.4,0.6-0.7,1.2-0.7,2v10.9c0,0.9,0.3,1.6,0.8,2.1c0.5,0.5,1.1,0.8,1.8,0.8c0.7,0,1.4-0.3,1.9-0.9c0.5-0.6,0.8-1.3,0.8-2v-1.6
		c0-0.1,0-0.1,0.1-0.1h4c0.1,0,0.1,0,0.1,0.1v1.6c0,1.3-0.3,2.5-0.9,3.6c-0.6,1.1-1.4,1.9-2.5,2.6
		C233.2,285.6,232,285.9,230.7,285.9z"/>
	<path d="M240.3,285.5c-0.1,0-0.1-0.1-0.1-0.2l0-24c0-0.1,0-0.1,0.1-0.1h11.2c0.1,0,0.1,0.1,0.1,0.2v3.9c0,0.1,0,0.1-0.1,0.1h-7.2
		v5.5h7.2c0.1,0,0.1,0,0.1,0.1l0,4c0,0.1,0,0.1-0.1,0.1h-7.2v6.1h7.2c0.1,0,0.1,0.1,0.1,0.2v4c0,0.1,0,0.1-0.1,0.1H240.3z"/>
	<path d="M255.2,285.5c-0.2,0-0.3-0.1-0.3-0.2l0-23.8c0-0.2,0.1-0.3,0.3-0.3h3.1l5.9,13.8l-0.2-13.5c0-0.2,0.1-0.3,0.3-0.3h3.5
		c0.1,0,0.2,0.1,0.2,0.3l0,23.9c0,0.1-0.1,0.2-0.2,0.2h-3.1l-6.1-12.9l0.2,12.6c0,0.2-0.1,0.3-0.3,0.3H255.2z"/>
	<path d="M277.5,285.9c-1.3,0-2.4-0.3-3.5-1c-1-0.6-1.9-1.5-2.5-2.6c-0.6-1.1-0.9-2.3-0.9-3.6l0-10.9c0-1.3,0.3-2.5,0.9-3.5
		c0.6-1.1,1.4-1.9,2.4-2.6c1-0.6,2.2-1,3.5-1c1.3,0,2.4,0.3,3.5,0.9c1,0.6,1.8,1.5,2.4,2.5c0.6,1.1,0.9,2.2,0.9,3.6v1.6
		c0,0.1,0,0.1-0.1,0.1h-3.9c-0.1,0-0.1,0-0.1-0.1v-1.6c0-0.8-0.3-1.4-0.8-2c-0.5-0.6-1.1-0.8-1.9-0.8c-0.8,0-1.5,0.3-1.9,0.9
		c-0.4,0.6-0.7,1.2-0.7,2v10.9c0,0.9,0.3,1.6,0.8,2.1c0.5,0.5,1.1,0.8,1.8,0.8c0.7,0,1.4-0.3,1.9-0.9c0.5-0.6,0.8-1.3,0.8-2v-1.6
		c0-0.1,0-0.1,0.1-0.1h4c0.1,0,0.1,0,0.1,0.1v1.6c0,1.3-0.3,2.5-0.9,3.6c-0.6,1.1-1.4,1.9-2.5,2.6
		C280,285.6,278.8,285.9,277.5,285.9z"/>
	<path d="M287.1,285.5c-0.1,0-0.1-0.1-0.1-0.2l0-24c0-0.1,0-0.1,0.1-0.1h11.2c0.1,0,0.1,0.1,0.1,0.2v3.9c0,0.1,0,0.1-0.1,0.1h-7.2
		v5.5h7.2c0.1,0,0.1,0,0.1,0.1l0,4c0,0.1,0,0.1-0.1,0.1h-7.2v6.1h7.2c0.1,0,0.1,0.1,0.1,0.2v4c0,0.1,0,0.1-0.1,0.1H287.1z"/>
	<path d="M203.2,315.5c-0.1,0-0.2-0.1-0.2-0.2l0.1-24c0-0.1,0-0.1,0.1-0.1h6.7c2.1,0,3.8,0.7,5.1,2c1.2,1.3,1.9,3.1,1.9,5.3
		c0,1.7-0.3,3.1-1,4.3c-0.7,1.2-1.5,2.1-2.6,2.8c-1,0.7-2.2,1-3.4,1h-2.7v8.8c0,0.1-0.1,0.2-0.2,0.2H203.2z M207.3,302.3h2.7
		c0.7,0,1.4-0.4,1.9-1.1c0.5-0.7,0.8-1.6,0.8-2.8c0-0.9-0.2-1.7-0.7-2.2c-0.5-0.6-1.2-0.9-2-0.9l-2.7,0V302.3z"/>
	<path d="M219.2,315.5c-0.1,0-0.1-0.1-0.1-0.2l0.1-24c0-0.1,0-0.1,0.1-0.1h7.1c1.3,0,2.4,0.3,3.5,0.9c1.1,0.6,1.9,1.4,2.5,2.5
		c0.6,1,0.9,2.2,0.9,3.5c0,0.9-0.1,1.6-0.4,2.3c-0.3,0.7-0.6,1.3-0.9,1.7c-0.3,0.5-0.7,0.8-0.9,1.1c1.3,1.4,1.9,3,1.9,4.9l0,7.2
		c0,0.1-0.1,0.2-0.2,0.2h-4c-0.1,0-0.1,0-0.1-0.1v-7.2c0-0.8-0.3-1.6-0.9-2.2c-0.6-0.6-1.3-0.9-2.2-0.9h-2.3l0,10.3
		c0,0.1,0,0.2-0.1,0.2H219.2z M223.3,300.9h3c0.7,0,1.4-0.3,1.9-0.8c0.6-0.5,0.8-1.2,0.8-2c0-0.7-0.3-1.4-0.8-1.9
		c-0.5-0.5-1.2-0.8-1.9-0.8h-3V300.9z"/>
	<path d="M242.2,315.9c-1.3,0-2.4-0.3-3.4-1c-1-0.6-1.9-1.5-2.5-2.6c-0.6-1.1-0.9-2.2-0.9-3.5l0-11.1c0-1.3,0.3-2.4,0.9-3.5
		c0.6-1,1.5-1.9,2.5-2.5c1-0.6,2.2-0.9,3.4-0.9c1.3,0,2.4,0.3,3.4,0.9c1,0.6,1.8,1.5,2.5,2.5c0.6,1,0.9,2.2,0.9,3.5l0,11.1
		c0,1.3-0.3,2.5-0.9,3.5c-0.6,1.1-1.4,1.9-2.5,2.6C244.6,315.6,243.5,315.9,242.2,315.9z M242.2,311.7c0.7,0,1.3-0.3,1.8-0.9
		c0.5-0.6,0.8-1.2,0.8-1.9l0-11.1c0-0.8-0.2-1.4-0.7-2c-0.5-0.5-1.1-0.8-1.9-0.8c-0.7,0-1.3,0.3-1.9,0.8c-0.5,0.5-0.8,1.2-0.8,2
		v11.1c0,0.8,0.3,1.4,0.8,2C240.9,311.4,241.5,311.7,242.2,311.7z"/>
	<path d="M249.8,315.5c-0.1,0-0.1,0-0.1-0.1v-4c0-0.1,0-0.1,0.1-0.1h4c0.1,0,0.1,0,0.1,0.1v4c0,0.1,0,0.1-0.1,0.1H249.8z"/>
	<path d="M206.3,345.5c-0.1,0-0.2-0.1-0.2-0.2l-4.1-24c0-0.1,0-0.1,0.1-0.1h3.9c0.1,0,0.2,0,0.2,0.1l2.2,15.8l2.3-15.8
		c0-0.1,0.1-0.1,0.2-0.1h3.1c0.1,0,0.2,0,0.2,0.1l2.3,15.8l2.3-15.8c0-0.1,0.1-0.1,0.2-0.1h3.9c0.1,0,0.2,0,0.1,0.1l-4.2,24
		c0,0-0.1,0.1-0.2,0.2h-4.2c-0.1,0-0.1-0.1-0.2-0.2l-1.8-12.6l-1.8,12.6c0,0.1-0.1,0.2-0.2,0.2H206.3z"/>
	<path d="M225.2,345.5c-0.1,0-0.1-0.1-0.1-0.2l0-24c0-0.1,0-0.1,0.1-0.1h11.2c0.1,0,0.1,0.1,0.1,0.2v3.9c0,0.1,0,0.1-0.1,0.1h-7.2
		v5.5h7.2c0.1,0,0.1,0,0.1,0.1l0,4c0,0.1,0,0.1-0.1,0.1h-7.2v6.1h7.2c0.1,0,0.1,0.1,0.1,0.2v4c0,0.1,0,0.1-0.1,0.1H225.2z"/>
	<path d="M239.9,345.5c-0.1,0-0.1-0.1-0.1-0.2l0.1-24c0-0.1,0-0.1,0.1-0.1h6.7c1.3,0,2.5,0.3,3.6,1c1,0.6,1.9,1.5,2.5,2.5
		c0.6,1,0.9,2.2,0.9,3.4c0,1-0.2,1.9-0.7,2.8c-0.5,0.9-1,1.6-1.6,2.1c0.7,0.7,1.2,1.5,1.6,2.3c0.4,0.9,0.6,1.8,0.6,2.8
		c0,1.4-0.3,2.6-1,3.7c-0.7,1.1-1.5,2-2.6,2.7s-2.3,1-3.7,1H239.9z M244,341.3h2.2c0.8,0,1.6-0.3,2.2-0.9c0.6-0.6,0.9-1.3,0.9-2.2
		c0-0.8-0.3-1.6-0.9-2.2c-0.6-0.6-1.3-0.9-2.2-0.9H244L244,341.3z M244,330.8h2.7c0.8,0,1.5-0.3,2-0.9c0.5-0.6,0.8-1.2,0.8-1.9
		c0-0.7-0.3-1.4-0.8-1.9c-0.5-0.5-1.2-0.8-1.9-0.8H244V330.8z"/>
</g>
<rect x="18.1" y="341" class="st0" width="3.1" height="0.2"/>
<g>
	<path d="M32.6,194.5c-0.1,0-0.2-0.1-0.2-0.2v-4c0,0,0-0.1,0.1-0.1l8.6-11.9c0.2-0.2,0.3-0.5,0.4-0.8c0.1-0.3,0.2-0.6,0.2-0.9
		c0-0.7-0.2-1.3-0.7-1.9c-0.5-0.6-1.1-0.9-1.9-0.9c-0.7,0-1.3,0.3-1.8,0.8c-0.5,0.5-0.8,1.2-0.8,2.1v1.7c0,0.1-0.1,0.2-0.2,0.2h-3.9
		c-0.1,0-0.1-0.1-0.1-0.2v-1.7c0-1.3,0.3-2.5,1-3.6c0.6-1.1,1.5-1.9,2.5-2.6c1-0.6,2.2-0.9,3.3-0.9c1.3,0,2.4,0.3,3.4,1
		c1,0.6,1.8,1.5,2.5,2.5c0.6,1,0.9,2.2,0.9,3.4c0,0.8-0.1,1.6-0.4,2.3c-0.3,0.8-0.6,1.5-1.1,2.1l-6.6,9.1h7.9c0.1,0,0.1,0,0.1,0.1v4
		c0,0.1,0,0.2-0.1,0.2H32.6z"/>
	<path d="M55.6,194.9c-1.5,0-2.8-0.3-4-1c-1.1-0.6-2-1.5-2.7-2.6c-0.6-1.1-1-2.2-1-3.5l0-11.1c0-1.3,0.3-2.4,1-3.5
		c0.6-1,1.5-1.9,2.7-2.5c1.1-0.6,2.4-0.9,3.9-0.9c1.5,0,2.8,0.3,3.9,0.9c1.1,0.6,2,1.5,2.6,2.5c0.6,1,1,2.2,1,3.5l0,11.1
		c0,1.3-0.3,2.5-1,3.5c-0.6,1.1-1.5,1.9-2.7,2.6S57.1,194.9,55.6,194.9z M58.9,187.9l0-11.1c0-0.8-0.3-1.5-0.9-2
		c-0.6-0.5-1.4-0.8-2.4-0.8c-1,0-1.8,0.3-2.4,0.8c-0.6,0.5-0.9,1.2-0.9,2v11.1c0,0.9,0.3,1.5,0.9,2c0.6,0.5,1.4,0.8,2.4,0.8
		c1,0,1.8-0.3,2.4-0.8C58.6,189.4,58.9,188.7,58.9,187.9z"/>
	<path d="M65.4,194.5c-0.1,0-0.2-0.1-0.2-0.2v-4c0,0,0-0.1,0.1-0.1l8.6-11.9c0.2-0.2,0.3-0.5,0.4-0.8c0.1-0.3,0.2-0.6,0.2-0.9
		c0-0.7-0.2-1.3-0.7-1.9c-0.5-0.6-1.1-0.9-1.9-0.9c-0.7,0-1.3,0.3-1.8,0.8c-0.5,0.5-0.8,1.2-0.8,2.1v1.7c0,0.1-0.1,0.2-0.2,0.2h-3.9
		c-0.1,0-0.1-0.1-0.1-0.2v-1.7c0-1.3,0.3-2.5,1-3.6c0.6-1.1,1.5-1.9,2.5-2.6c1-0.6,2.2-0.9,3.3-0.9c1.3,0,2.4,0.3,3.4,1
		c1,0.6,1.8,1.5,2.5,2.5c0.6,1,0.9,2.2,0.9,3.4c0,0.8-0.1,1.6-0.4,2.3c-0.3,0.8-0.6,1.5-1.1,2.1l-6.6,9.1h7.9c0.1,0,0.1,0,0.1,0.1v4
		c0,0.1,0,0.2-0.1,0.2H65.4z"/>
	<path d="M88.4,194.9c-1.5,0-2.8-0.3-4-1c-1.1-0.6-2-1.5-2.7-2.6c-0.6-1.1-1-2.2-1-3.5l0-11.1c0-1.3,0.3-2.4,1-3.5
		c0.6-1,1.5-1.9,2.7-2.5c1.1-0.6,2.4-0.9,3.9-0.9c1.5,0,2.8,0.3,3.9,0.9c1.1,0.6,2,1.5,2.6,2.5c0.6,1,1,2.2,1,3.5l0,11.1
		c0,1.3-0.3,2.5-1,3.5c-0.6,1.1-1.5,1.9-2.7,2.6S89.9,194.9,88.4,194.9z M91.8,187.9l0-11.1c0-0.8-0.3-1.5-0.9-2
		c-0.6-0.5-1.4-0.8-2.4-0.8c-1,0-1.8,0.3-2.4,0.8c-0.6,0.5-0.9,1.2-0.9,2v11.1c0,0.9,0.3,1.5,0.9,2c0.6,0.5,1.4,0.8,2.4,0.8
		c1,0,1.8-0.3,2.4-0.8C91.5,189.4,91.8,188.7,91.8,187.9z"/>
	<path d="M32.6,227.5c-0.1,0-0.2-0.1-0.2-0.2v-4c0,0,0-0.1,0.1-0.1l8.6-11.9c0.2-0.2,0.3-0.5,0.4-0.8c0.1-0.3,0.2-0.6,0.2-0.9
		c0-0.7-0.2-1.3-0.7-1.9c-0.5-0.6-1.1-0.9-1.9-0.9c-0.7,0-1.3,0.3-1.8,0.8c-0.5,0.5-0.8,1.2-0.8,2.1v1.7c0,0.1-0.1,0.2-0.2,0.2h-3.9
		c-0.1,0-0.1-0.1-0.1-0.2v-1.7c0-1.3,0.3-2.5,1-3.6c0.6-1.1,1.5-1.9,2.5-2.6c1-0.6,2.2-0.9,3.3-0.9c1.3,0,2.4,0.3,3.4,1
		c1,0.6,1.8,1.5,2.5,2.5c0.6,1,0.9,2.2,0.9,3.4c0,0.8-0.1,1.6-0.4,2.3c-0.3,0.8-0.6,1.5-1.1,2.1l-6.6,9.1h7.9c0.1,0,0.1,0,0.1,0.1v4
		c0,0.1,0,0.2-0.1,0.2H32.6z"/>
	<path d="M55.6,227.9c-1.5,0-2.8-0.3-4-1c-1.1-0.6-2-1.5-2.7-2.6c-0.6-1.1-1-2.2-1-3.5l0-11.1c0-1.3,0.3-2.4,1-3.5
		c0.6-1,1.5-1.9,2.7-2.5c1.1-0.6,2.4-0.9,3.9-0.9c1.5,0,2.8,0.3,3.9,0.9c1.1,0.6,2,1.5,2.6,2.5c0.6,1,1,2.2,1,3.5l0,11.1
		c0,1.3-0.3,2.5-1,3.5c-0.6,1.1-1.5,1.9-2.7,2.6S57.1,227.9,55.6,227.9z M58.9,220.9l0-11.1c0-0.8-0.3-1.5-0.9-2
		c-0.6-0.5-1.4-0.8-2.4-0.8c-1,0-1.8,0.3-2.4,0.8c-0.6,0.5-0.9,1.2-0.9,2v11.1c0,0.9,0.3,1.5,0.9,2c0.6,0.5,1.4,0.8,2.4,0.8
		c1,0,1.8-0.3,2.4-0.8C58.6,222.4,58.9,221.7,58.9,220.9z"/>
	<path d="M65.4,227.5c-0.1,0-0.2-0.1-0.2-0.2v-4c0,0,0-0.1,0.1-0.1l8.6-11.9c0.2-0.2,0.3-0.5,0.4-0.8c0.1-0.3,0.2-0.6,0.2-0.9
		c0-0.7-0.2-1.3-0.7-1.9c-0.5-0.6-1.1-0.9-1.9-0.9c-0.7,0-1.3,0.3-1.8,0.8c-0.5,0.5-0.8,1.2-0.8,2.1v1.7c0,0.1-0.1,0.2-0.2,0.2h-3.9
		c-0.1,0-0.1-0.1-0.1-0.2v-1.7c0-1.3,0.3-2.5,1-3.6c0.6-1.1,1.5-1.9,2.5-2.6c1-0.6,2.2-0.9,3.3-0.9c1.3,0,2.4,0.3,3.4,1
		c1,0.6,1.8,1.5,2.5,2.5c0.6,1,0.9,2.2,0.9,3.4c0,0.8-0.1,1.6-0.4,2.3c-0.3,0.8-0.6,1.5-1.1,2.1l-6.6,9.1h7.9c0.1,0,0.1,0,0.1,0.1v4
		c0,0.1,0,0.2-0.1,0.2H65.4z"/>
	<path d="M80.8,227.5c-0.1,0-0.2-0.1-0.2-0.2v-4c0,0,0-0.1,0.1-0.1l8.6-11.9c0.2-0.2,0.3-0.5,0.4-0.8c0.1-0.3,0.2-0.6,0.2-0.9
		c0-0.7-0.2-1.3-0.7-1.9c-0.5-0.6-1.1-0.9-1.9-0.9c-0.7,0-1.3,0.3-1.8,0.8c-0.5,0.5-0.8,1.2-0.8,2.1v1.7c0,0.1-0.1,0.2-0.2,0.2h-3.9
		c-0.1,0-0.1-0.1-0.1-0.2v-1.7c0-1.3,0.3-2.5,1-3.6c0.6-1.1,1.5-1.9,2.5-2.6c1-0.6,2.2-0.9,3.3-0.9c1.3,0,2.4,0.3,3.4,1
		c1,0.6,1.8,1.5,2.5,2.5c0.6,1,0.9,2.2,0.9,3.4c0,0.8-0.1,1.6-0.4,2.3c-0.3,0.8-0.6,1.5-1.1,2.1l-6.6,9.1h7.9c0.1,0,0.1,0,0.1,0.1v4
		c0,0.1,0,0.2-0.1,0.2H80.8z"/>
</g>
</svg>
