<?xml version="1.0" encoding="utf-8"?>
<!-- Generator: Adobe Illustrator 24.0.0, SVG Export Plug-In . SVG Version: 6.00 Build 0)  -->
<svg version="1.1" id="Calque_1" xmlns="http://www.w3.org/2000/svg" xmlns:xlink="http://www.w3.org/1999/xlink" x="0px" y="0px"
	 viewBox="0 0 323.5 383.7" style="enable-background:new 0 0 323.5 383.7;" xml:space="preserve">
<style type="text/css">
	.st0{fill:none;}
</style>
<rect x="103" y="60.2" width="92" height="12.3"/>
<path d="M163,35.3v292.2h-28V35.3c0-7.6,6.3-13.8,14-13.8c3.9,0,7.4,1.5,9.9,4S163,31.5,163,35.3z"/>
<rect x="135" y="333.5" width="28" height="6"/>
<rect x="135" y="343.5" width="28" height="5"/>
<rect x="135" y="351.5" width="28" height="4"/>
<path d="M163,357.5v1.4c0,0.2,0,0.4,0,0.6h-28c0-0.2,0-0.4,0-0.6v-1.4H163z"/>
<path d="M162.4,361.5c-0.2,0.3-0.4,0.5-0.7,0.8h-25.5c-0.3-0.2-0.5-0.5-0.7-0.8H162.4z"/>
<rect x="103" y="161.2" width="92" height="12.3"/>
<rect x="103" y="161.2" width="92" height="12.3"/>
<rect x="119" y="264.2" width="9" height="12.3"/>
<rect x="170" y="264.2" width="9" height="12.3"/>
<rect x="103" y="264.2" width="9" height="12.3"/>
<rect x="186" y="264.2" width="9" height="12.3"/>
<g>
	<path d="M30.9,78.8c-0.1,0-0.2-0.1-0.2-0.2v-4c0,0,0-0.1,0.1-0.1l8.6-11.9c0.2-0.2,0.3-0.5,0.4-0.8c0.1-0.3,0.2-0.6,0.2-0.9
		c0-0.7-0.2-1.3-0.7-1.9s-1.1-0.9-1.9-0.9c-0.7,0-1.3,0.3-1.8,0.8s-0.8,1.2-0.8,2.1v1.7c0,0.1-0.1,0.2-0.2,0.2h-3.9
		c-0.1,0-0.1-0.1-0.1-0.2V61c0-1.3,0.3-2.5,1-3.6c0.6-1.1,1.5-1.9,2.5-2.6c1-0.6,2.2-0.9,3.3-0.9c1.3,0,2.4,0.3,3.4,1
		c1,0.6,1.8,1.5,2.5,2.5c0.6,1,0.9,2.2,0.9,3.4c0,0.8-0.1,1.6-0.4,2.3c-0.3,0.8-0.6,1.5-1.1,2.1l-6.6,9.1H44c0.1,0,0.1,0,0.1,0.1v4
		c0,0.1,0,0.2-0.1,0.2H30.9V78.8z"/>
	<path d="M53.9,79.1c-1.5,0-2.8-0.3-4-1c-1.1-0.6-2-1.5-2.7-2.6c-0.6-1.1-1-2.2-1-3.5V60.9c0-1.3,0.3-2.4,1-3.5
		c0.6-1,1.5-1.9,2.7-2.5c1.1-0.6,2.4-0.9,3.9-0.9s2.8,0.3,3.9,0.9c1.1,0.6,2,1.5,2.6,2.5s1,2.2,1,3.5V72c0,1.3-0.3,2.5-1,3.5
		c-0.6,1.1-1.5,1.9-2.7,2.6S55.4,79.1,53.9,79.1z M57.2,72.1V61c0-0.8-0.3-1.5-0.9-2c-0.6-0.5-1.4-0.8-2.4-0.8s-1.8,0.3-2.4,0.8
		c-0.6,0.5-0.9,1.2-0.9,2v11.1c0,0.9,0.3,1.5,0.9,2c0.6,0.5,1.4,0.8,2.4,0.8s1.8-0.3,2.4-0.8C56.9,73.7,57.2,73,57.2,72.1z"/>
	<path d="M63.7,78.8c-0.1,0-0.2-0.1-0.2-0.2v-4c0,0,0-0.1,0.1-0.1l8.6-11.9c0.2-0.2,0.3-0.5,0.4-0.8s0.2-0.6,0.2-0.9
		c0-0.7-0.2-1.3-0.7-1.9s-1.1-0.9-1.9-0.9c-0.7,0-1.3,0.3-1.8,0.8s-0.8,1.2-0.8,2.1v1.7c0,0.1-0.1,0.2-0.2,0.2h-3.9
		c-0.1,0-0.1-0.1-0.1-0.2V61c0-1.3,0.3-2.5,1-3.6c0.6-1.1,1.5-1.9,2.5-2.6c1-0.6,2.2-0.9,3.3-0.9c1.3,0,2.4,0.3,3.4,1
		c1,0.6,1.8,1.5,2.5,2.5c0.6,1,0.9,2.2,0.9,3.4c0,0.8-0.1,1.6-0.4,2.3c-0.3,0.8-0.6,1.5-1.1,2.1l-6.6,9.1h7.9c0.1,0,0.1,0,0.1,0.1v4
		c0,0.1,0,0.2-0.1,0.2H63.7V78.8z"/>
	<path d="M86.8,79.1c-1.5,0-2.8-0.3-4-1c-1.1-0.6-2-1.5-2.7-2.6c-0.6-1.1-1-2.2-1-3.5V60.9c0-1.3,0.3-2.4,1-3.5
		c0.6-1,1.5-1.9,2.7-2.5c1.1-0.6,2.4-0.9,3.9-0.9s2.8,0.3,3.9,0.9s2,1.5,2.6,2.5s1,2.2,1,3.5V72c0,1.3-0.3,2.5-1,3.5
		c-0.6,1.1-1.5,1.9-2.7,2.6S88.3,79.1,86.8,79.1z M90.1,72.1V61c0-0.8-0.3-1.5-0.9-2s-1.4-0.8-2.4-0.8S85,58.5,84.4,59
		s-0.9,1.2-0.9,2v11.1c0,0.9,0.3,1.5,0.9,2s1.4,0.8,2.4,0.8s1.8-0.3,2.4-0.8C89.8,73.7,90.1,73,90.1,72.1z"/>
</g>
<g>
	<path d="M32.6,266.5c-0.1,0-0.2-0.1-0.2-0.2v-4c0,0,0-0.1,0.1-0.1l8.6-11.9c0.2-0.2,0.3-0.5,0.4-0.8c0.1-0.3,0.2-0.6,0.2-0.9
		c0-0.7-0.2-1.3-0.7-1.9s-1.1-0.9-1.9-0.9c-0.7,0-1.3,0.3-1.8,0.8s-0.8,1.2-0.8,2.1v1.7c0,0.1-0.1,0.2-0.2,0.2h-3.9
		c-0.1,0-0.1-0.1-0.1-0.2v-1.7c0-1.3,0.3-2.5,1-3.6c0.6-1.1,1.5-1.9,2.5-2.6c1-0.6,2.2-0.9,3.3-0.9c1.3,0,2.4,0.3,3.4,1
		c1,0.6,1.8,1.5,2.5,2.5c0.6,1,0.9,2.2,0.9,3.4c0,0.8-0.1,1.6-0.4,2.3c-0.3,0.8-0.6,1.5-1.1,2.1l-6.6,9.1h7.9c0.1,0,0.1,0,0.1,0.1v4
		c0,0.1,0,0.2-0.1,0.2H32.6V266.5z"/>
	<path d="M55.6,266.9c-1.5,0-2.8-0.3-4-1c-1.1-0.6-2-1.5-2.7-2.6c-0.6-1.1-1-2.2-1-3.5v-11.1c0-1.3,0.3-2.4,1-3.5
		c0.6-1,1.5-1.9,2.7-2.5c1.1-0.6,2.4-0.9,3.9-0.9s2.8,0.3,3.9,0.9c1.1,0.6,2,1.5,2.6,2.5s1,2.2,1,3.5v11.1c0,1.3-0.3,2.5-1,3.5
		c-0.6,1.1-1.5,1.9-2.7,2.6S57.1,266.9,55.6,266.9z M58.9,259.9v-11.1c0-0.8-0.3-1.5-0.9-2c-0.6-0.5-1.4-0.8-2.4-0.8
		s-1.8,0.3-2.4,0.8c-0.6,0.5-0.9,1.2-0.9,2v11.1c0,0.9,0.3,1.5,0.9,2c0.6,0.5,1.4,0.8,2.4,0.8s1.8-0.3,2.4-0.8
		C58.6,261.4,58.9,260.7,58.9,259.9z"/>
	<path d="M65.4,266.5c-0.1,0-0.2-0.1-0.2-0.2v-4c0,0,0-0.1,0.1-0.1l8.6-11.9c0.2-0.2,0.3-0.5,0.4-0.8s0.2-0.6,0.2-0.9
		c0-0.7-0.2-1.3-0.7-1.9s-1.1-0.9-1.9-0.9c-0.7,0-1.3,0.3-1.8,0.8s-0.8,1.2-0.8,2.1v1.7c0,0.1-0.1,0.2-0.2,0.2h-3.9
		c-0.1,0-0.1-0.1-0.1-0.2v-1.7c0-1.3,0.3-2.5,1-3.6c0.6-1.1,1.5-1.9,2.5-2.6c1-0.6,2.2-0.9,3.3-0.9c1.3,0,2.4,0.3,3.4,1
		c1,0.6,1.8,1.5,2.5,2.5c0.6,1,0.9,2.2,0.9,3.4c0,0.8-0.1,1.6-0.4,2.3c-0.3,0.8-0.6,1.5-1.1,2.1l-6.6,9.1h7.9c0.1,0,0.1,0,0.1,0.1v4
		c0,0.1,0,0.2-0.1,0.2H65.4V266.5z"/>
	<path d="M80.8,266.5c-0.1,0-0.2-0.1-0.2-0.2v-4c0,0,0-0.1,0.1-0.1l8.6-11.9c0.2-0.2,0.3-0.5,0.4-0.8s0.2-0.6,0.2-0.9
		c0-0.7-0.2-1.3-0.7-1.9s-1.1-0.9-1.9-0.9c-0.7,0-1.3,0.3-1.8,0.8s-0.8,1.2-0.8,2.1v1.7c0,0.1-0.1,0.2-0.2,0.2h-3.9
		c-0.1,0-0.1-0.1-0.1-0.2v-1.7c0-1.3,0.3-2.5,1-3.6c0.6-1.1,1.5-1.9,2.5-2.6c1-0.6,2.2-0.9,3.3-0.9c1.3,0,2.4,0.3,3.4,1
		c1,0.6,1.8,1.5,2.5,2.5c0.6,1,0.9,2.2,0.9,3.4c0,0.8-0.1,1.6-0.4,2.3c-0.3,0.8-0.6,1.5-1.1,2.1L86,262h7.9c0.1,0,0.1,0,0.1,0.1v4
		c0,0.1,0,0.2-0.1,0.2H80.8V266.5z"/>
	<path d="M32.6,299.5c-0.1,0-0.2-0.1-0.2-0.2v-4c0,0,0-0.1,0.1-0.1l8.6-11.9c0.2-0.2,0.3-0.5,0.4-0.8c0.1-0.3,0.2-0.6,0.2-0.9
		c0-0.7-0.2-1.3-0.7-1.9s-1.1-0.9-1.9-0.9c-0.7,0-1.3,0.3-1.8,0.8s-0.8,1.2-0.8,2.1v1.7c0,0.1-0.1,0.2-0.2,0.2h-3.9
		c-0.1,0-0.1-0.1-0.1-0.2v-1.7c0-1.3,0.3-2.5,1-3.6c0.6-1.1,1.5-1.9,2.5-2.6c1-0.6,2.2-0.9,3.3-0.9c1.3,0,2.4,0.3,3.4,1
		c1,0.6,1.8,1.5,2.5,2.5c0.6,1,0.9,2.2,0.9,3.4c0,0.8-0.1,1.6-0.4,2.3c-0.3,0.8-0.6,1.5-1.1,2.1l-6.6,9.1h7.9c0.1,0,0.1,0,0.1,0.1v4
		c0,0.1,0,0.2-0.1,0.2H32.6V299.5z"/>
	<path d="M55.6,299.9c-1.5,0-2.8-0.3-4-1c-1.1-0.6-2-1.5-2.7-2.6c-0.6-1.1-1-2.2-1-3.5v-11.1c0-1.3,0.3-2.4,1-3.5
		c0.6-1,1.5-1.9,2.7-2.5c1.1-0.6,2.4-0.9,3.9-0.9s2.8,0.3,3.9,0.9c1.1,0.6,2,1.5,2.6,2.5s1,2.2,1,3.5v11.1c0,1.3-0.3,2.5-1,3.5
		s-1.5,1.9-2.7,2.6C58.4,299.6,57.1,299.9,55.6,299.9z M58.9,292.9v-11.1c0-0.8-0.3-1.5-0.9-2c-0.6-0.5-1.4-0.8-2.4-0.8
		s-1.8,0.3-2.4,0.8c-0.6,0.5-0.9,1.2-0.9,2v11.1c0,0.9,0.3,1.5,0.9,2c0.6,0.5,1.4,0.8,2.4,0.8s1.8-0.3,2.4-0.8
		C58.6,294.4,58.9,293.7,58.9,292.9z"/>
	<path d="M65.4,299.5c-0.1,0-0.2-0.1-0.2-0.2v-4c0,0,0-0.1,0.1-0.1l8.6-11.9c0.2-0.2,0.3-0.5,0.4-0.8s0.2-0.6,0.2-0.9
		c0-0.7-0.2-1.3-0.7-1.9s-1.1-0.9-1.9-0.9c-0.7,0-1.3,0.3-1.8,0.8s-0.8,1.2-0.8,2.1v1.7c0,0.1-0.1,0.2-0.2,0.2h-3.9
		c-0.1,0-0.1-0.1-0.1-0.2v-1.7c0-1.3,0.3-2.5,1-3.6c0.6-1.1,1.5-1.9,2.5-2.6c1-0.6,2.2-0.9,3.3-0.9c1.3,0,2.4,0.3,3.4,1
		c1,0.6,1.8,1.5,2.5,2.5c0.6,1,0.9,2.2,0.9,3.4c0,0.8-0.1,1.6-0.4,2.3c-0.3,0.8-0.6,1.5-1.1,2.1l-6.6,9.1h7.9c0.1,0,0.1,0,0.1,0.1v4
		c0,0.1,0,0.2-0.1,0.2H65.4V299.5z"/>
	<path d="M87.3,299.9c-1.2,0-2.4-0.3-3.4-1c-1-0.6-1.9-1.5-2.5-2.6s-0.9-2.3-0.9-3.5v-1.6c0-0.1,0-0.2,0.1-0.2h3.9
		c0.1,0,0.2,0.1,0.2,0.2v1.6c0,0.8,0.2,1.4,0.7,2c0.5,0.5,1.1,0.8,1.9,0.8s1.5-0.3,1.9-0.9c0.5-0.6,0.7-1.2,0.7-1.9v-0.9
		c0-0.7-0.2-1.4-0.7-2s-1-0.9-1.7-0.9h-1.4c-0.1,0-0.2-0.1-0.2-0.2v-3.9c0-0.1,0-0.1,0.1-0.1h1.4c0.6,0,1.2-0.2,1.7-0.7
		s0.7-1.1,0.7-1.9v-0.5c0-0.7-0.3-1.4-0.8-1.9s-1.1-0.8-1.9-0.8c-0.7,0-1.3,0.3-1.8,0.8s-0.8,1.2-0.8,1.9v1.7c0,0.1,0,0.2-0.1,0.2
		h-3.9c-0.1,0-0.1-0.1-0.1-0.2v-1.9c0-1.3,0.3-2.4,1-3.4c0.6-1,1.5-1.8,2.5-2.4s2.1-0.9,3.3-0.9c1.3,0,2.4,0.3,3.4,0.9
		s1.9,1.4,2.5,2.5c0.6,1,0.9,2.2,0.9,3.4v0.6c0,1-0.2,1.9-0.5,2.7c-0.3,0.7-0.8,1.5-1.4,2.1c0.6,0.7,1.1,1.5,1.4,2.3
		c0.4,0.8,0.5,1.7,0.5,2.6v1c0,1.3-0.3,2.5-0.9,3.6s-1.4,1.9-2.5,2.6S88.6,299.9,87.3,299.9z"/>
</g>
<g>
	<path d="M203.5,78.8c-0.1,0-0.1-0.1-0.1-0.2l0.1-24c0-0.1,0-0.1,0.1-0.1h6.7c1.3,0,2.5,0.3,3.6,1c1,0.6,1.9,1.5,2.5,2.5
		s0.9,2.2,0.9,3.4c0,1-0.2,1.9-0.7,2.8s-1,1.6-1.6,2.1c0.7,0.7,1.2,1.5,1.6,2.3c0.4,0.9,0.6,1.8,0.6,2.8c0,1.4-0.3,2.6-1,3.7
		s-1.5,2-2.6,2.7s-2.3,1-3.7,1C209.9,78.8,203.5,78.8,203.5,78.8z M207.6,74.5h2.2c0.8,0,1.6-0.3,2.2-0.9c0.6-0.6,0.9-1.3,0.9-2.2
		c0-0.8-0.3-1.6-0.9-2.2c-0.6-0.6-1.3-0.9-2.2-0.9h-2.1L207.6,74.5z M207.6,64.1h2.7c0.8,0,1.5-0.3,2-0.9s0.8-1.2,0.8-1.9
		c0-0.7-0.3-1.4-0.8-1.9s-1.2-0.8-1.9-0.8h-2.7v5.5H207.6z"/>
	<path d="M217.7,78.6l4.3-24c0-0.1,0.1-0.1,0.2-0.1h5.1c0.1,0,0.2,0,0.2,0.1l4.2,24c0,0.1,0,0.2-0.1,0.2h-3.9
		c-0.1,0-0.2-0.1-0.2-0.2l-0.4-2.6h-4.8l-0.4,2.6c0,0.1-0.1,0.2-0.2,0.2h-3.9C217.8,78.8,217.7,78.7,217.7,78.6z M223,72.3h3.4
		l-1.4-9.8l-0.2-1.3l-0.1,1.3L223,72.3z"/>
	<path d="M239.6,79.1c-1.3,0-2.4-0.3-3.5-1c-1-0.6-1.9-1.5-2.5-2.6s-0.9-2.3-0.9-3.6V61c0-1.3,0.3-2.5,0.9-3.5
		c0.6-1.1,1.4-1.9,2.4-2.6c1-0.6,2.2-1,3.5-1s2.4,0.3,3.5,0.9c1,0.6,1.8,1.5,2.4,2.5c0.6,1.1,0.9,2.2,0.9,3.6v1.6
		c0,0.1,0,0.1-0.1,0.1h-3.9c-0.1,0-0.1,0-0.1-0.1v-1.6c0-0.8-0.3-1.4-0.8-2s-1.1-0.8-1.9-0.8c-0.8,0-1.5,0.3-1.9,0.9s-0.7,1.2-0.7,2
		v11c0,0.9,0.3,1.6,0.8,2.1s1.1,0.8,1.8,0.8s1.4-0.3,1.9-0.9s0.8-1.3,0.8-2v-1.6c0-0.1,0-0.1,0.1-0.1h4c0.1,0,0.1,0,0.1,0.1V72
		c0,1.3-0.3,2.5-0.9,3.6c-0.6,1.1-1.4,1.9-2.5,2.6C242,78.8,240.8,79.1,239.6,79.1z"/>
	<path d="M260.1,79.1c-1.3,0-2.4-0.3-3.4-1c-1-0.6-1.9-1.5-2.5-2.6s-0.9-2.2-0.9-3.5v-1.6c0-0.1,0.1-0.2,0.2-0.2h3.9
		c0.1,0,0.1,0.1,0.1,0.2V72c0,0.8,0.3,1.4,0.8,2c0.5,0.5,1.1,0.8,1.9,0.8c0.7,0,1.3-0.3,1.9-0.8c0.5-0.6,0.8-1.2,0.8-2
		c0-0.9-0.6-1.6-1.7-2.2c-0.4-0.2-1-0.5-1.7-1c-0.8-0.4-1.5-0.9-2.2-1.3c-1.3-0.7-2.2-1.7-2.9-2.8c-0.6-1.1-0.9-2.4-0.9-3.8
		c0-1.3,0.3-2.5,0.9-3.5c0.6-1,1.5-1.9,2.5-2.5s2.2-0.9,3.4-0.9c1.2,0,2.4,0.3,3.4,0.9s1.9,1.4,2.5,2.5c0.6,1,0.9,2.2,0.9,3.5v2.9
		c0,0.1,0,0.1-0.1,0.1h-3.9c-0.1,0-0.1,0-0.1-0.1v-2.9c0-0.8-0.3-1.5-0.8-2s-1.1-0.8-1.8-0.8c-0.7,0-1.3,0.3-1.9,0.8
		c-0.5,0.5-0.8,1.2-0.8,1.9c0,0.8,0.2,1.4,0.5,1.9s0.9,1,1.8,1.5c0.1,0.1,0.3,0.2,0.7,0.4c0.3,0.2,0.7,0.4,1.1,0.6s0.8,0.4,1.1,0.6
		c0.3,0.2,0.5,0.3,0.6,0.3c1.2,0.7,2.1,1.5,2.8,2.4c0.7,0.9,1,2.1,1,3.5c0,1.3-0.3,2.5-0.9,3.6s-1.4,1.9-2.5,2.5
		C262.5,78.8,261.4,79.1,260.1,79.1z"/>
</g>
<g>
	<path d="M204.1,178.8c-0.1,0-0.2-0.1-0.2-0.2l0.1-24c0-0.1,0-0.1,0.1-0.1h6.5c1.3,0,2.5,0.3,3.5,0.9c1.1,0.6,1.9,1.5,2.5,2.5
		c0.6,1.1,0.9,2.2,0.9,3.5v10c0,1.4-0.3,2.6-1,3.7c-0.7,1.1-1.5,2-2.6,2.6c-1.1,0.7-2.3,1-3.7,1L204.1,178.8z M208.2,174.5h2.2
		c0.9,0,1.6-0.3,2.2-0.9c0.6-0.6,0.9-1.3,0.9-2.2v-10.1c0-0.7-0.3-1.4-0.8-1.9s-1.2-0.8-1.9-0.8h-2.4L208.2,174.5z"/>
	<path d="M226.7,179.1c-1.2,0-2.4-0.3-3.4-1c-1-0.6-1.9-1.5-2.5-2.6s-0.9-2.3-0.9-3.5l0.1-17.5c0-0.1,0-0.1,0.1-0.1h3.9
		c0.1,0,0.1,0,0.1,0.1V172c0,0.8,0.3,1.5,0.8,2s1.1,0.8,1.8,0.8s1.4-0.3,1.9-0.8s0.8-1.2,0.8-2v-17.5c0-0.1,0-0.1,0.1-0.1h3.9
		c0.1,0,0.1,0,0.1,0.1l0.1,17.5c0,1.3-0.3,2.5-0.9,3.6c-0.6,1.1-1.4,1.9-2.5,2.6C229.2,178.8,228,179.1,226.7,179.1z"/>
	<path d="M239.9,178.8c-0.1,0-0.1-0.1-0.1-0.2v-19.9h-4.5c-0.1,0-0.2-0.1-0.2-0.2v-3.9c0-0.1,0-0.1,0.1-0.1h13.3
		c0.1,0,0.2,0,0.2,0.1v3.9c0,0.1,0,0.2-0.1,0.2H244v19.9c0,0.1,0,0.2-0.1,0.2H239.9z"/>
	<path d="M255.7,178.8c-0.1,0-0.1-0.1-0.1-0.2l0.1-24c0-0.1,0-0.1,0.1-0.1h4.3c0.1,0,0.2,0,0.2,0.1l3.2,4.6l3.2-4.6
		c0.1-0.1,0.2-0.1,0.2-0.1h4.3c0.1,0,0.1,0,0.1,0.1l0.1,24c0,0.1,0,0.2-0.1,0.2h-4c-0.1,0-0.1-0.1-0.1-0.2v-17.8l-3.7,5.3l-3.6-5.3
		v17.8c0,0.1,0,0.2-0.1,0.2H255.7z"/>
	<path d="M274.5,178.8c-0.1,0-0.1-0.1-0.1-0.2l0.1-24c0-0.1,0-0.1,0.1-0.1h4.3c0.1,0,0.2,0,0.2,0.1l3.2,4.6l3.2-4.6
		c0.1-0.1,0.2-0.1,0.2-0.1h4.3c0.1,0,0.1,0,0.1,0.1l0.1,24c0,0.1,0,0.2-0.1,0.2h-4c-0.1,0-0.1-0.1-0.1-0.2v-17.8l-3.7,5.3l-3.6-5.3
		v17.8c0,0.1,0,0.2-0.1,0.2H274.5z"/>
	<path d="M293.3,178.8c-0.1,0-0.2-0.1-0.2-0.2v-24c0-0.1,0-0.1,0.1-0.1h3.9c0.1,0,0.1,0,0.1,0.1v24c0,0.1,0,0.2-0.1,0.2H293.3z"/>
</g>
<g>
	<path d="M203.2,253.5c-0.1,0-0.1-0.1-0.1-0.2v-24c0-0.1,0.1-0.2,0.2-0.2h3.9c0.1,0,0.2,0.1,0.2,0.2v19.9h7.2c0.1,0,0.2,0.1,0.2,0.2
		v4c0,0.1-0.1,0.2-0.2,0.2h-11.4V253.5z"/>
	<path d="M217.1,253.5c-0.1,0-0.2-0.1-0.2-0.2v-24c0-0.1,0-0.1,0.1-0.1h3.9c0.1,0,0.1,0,0.1,0.1v24c0,0.1,0,0.2-0.1,0.2H217.1z"/>
	<path d="M230.7,253.9c-1.3,0-2.4-0.3-3.5-1c-1-0.6-1.9-1.5-2.5-2.6s-0.9-2.3-0.9-3.6v-10.9c0-1.3,0.3-2.5,0.9-3.5
		c0.6-1.1,1.4-1.9,2.4-2.6c1-0.6,2.2-1,3.5-1s2.4,0.3,3.5,0.9c1,0.6,1.8,1.5,2.4,2.5c0.6,1.1,0.9,2.2,0.9,3.6v1.6
		c0,0.1,0,0.1-0.1,0.1h-3.9c-0.1,0-0.1,0-0.1-0.1v-1.6c0-0.8-0.3-1.4-0.8-2s-1.1-0.8-1.9-0.8c-0.8,0-1.5,0.3-1.9,0.9s-0.7,1.2-0.7,2
		v10.9c0,0.9,0.3,1.6,0.8,2.1s1.1,0.8,1.8,0.8s1.4-0.3,1.9-0.9s0.8-1.3,0.8-2v-1.6c0-0.1,0-0.1,0.1-0.1h4c0.1,0,0.1,0,0.1,0.1v1.6
		c0,1.3-0.3,2.5-0.9,3.6c-0.6,1.1-1.4,1.9-2.5,2.6C233.2,253.6,232,253.9,230.7,253.9z"/>
	<path d="M240.3,253.5c-0.1,0-0.1-0.1-0.1-0.2v-24c0-0.1,0-0.1,0.1-0.1h11.2c0.1,0,0.1,0.1,0.1,0.2v3.9c0,0.1,0,0.1-0.1,0.1h-7.2
		v5.5h7.2c0.1,0,0.1,0,0.1,0.1v4c0,0.1,0,0.1-0.1,0.1h-7.2v6.1h7.2c0.1,0,0.1,0.1,0.1,0.2v4c0,0.1,0,0.1-0.1,0.1L240.3,253.5
		L240.3,253.5z"/>
	<path d="M255.2,253.5c-0.2,0-0.3-0.1-0.3-0.2v-23.8c0-0.2,0.1-0.3,0.3-0.3h3.1l5.9,13.8l-0.2-13.5c0-0.2,0.1-0.3,0.3-0.3h3.5
		c0.1,0,0.2,0.1,0.2,0.3v23.9c0,0.1-0.1,0.2-0.2,0.2h-3.1l-6.1-12.9l0.2,12.6c0,0.2-0.1,0.3-0.3,0.3h-3.3V253.5z"/>
	<path d="M277.5,253.9c-1.3,0-2.4-0.3-3.5-1c-1-0.6-1.9-1.5-2.5-2.6s-0.9-2.3-0.9-3.6v-10.9c0-1.3,0.3-2.5,0.9-3.5
		c0.6-1.1,1.4-1.9,2.4-2.6c1-0.6,2.2-1,3.5-1s2.4,0.3,3.5,0.9c1,0.6,1.8,1.5,2.4,2.5c0.6,1.1,0.9,2.2,0.9,3.6v1.6
		c0,0.1,0,0.1-0.1,0.1h-3.9c-0.1,0-0.1,0-0.1-0.1v-1.6c0-0.8-0.3-1.4-0.8-2s-1.1-0.8-1.9-0.8s-1.5,0.3-1.9,0.9s-0.7,1.2-0.7,2v10.9
		c0,0.9,0.3,1.6,0.8,2.1s1.1,0.8,1.8,0.8c0.7,0,1.4-0.3,1.9-0.9s0.8-1.3,0.8-2v-1.6c0-0.1,0-0.1,0.1-0.1h4c0.1,0,0.1,0,0.1,0.1v1.6
		c0,1.3-0.3,2.5-0.9,3.6s-1.4,1.9-2.5,2.6C280,253.6,278.8,253.9,277.5,253.9z"/>
	<path d="M287.1,253.5c-0.1,0-0.1-0.1-0.1-0.2v-24c0-0.1,0-0.1,0.1-0.1h11.2c0.1,0,0.1,0.1,0.1,0.2v3.9c0,0.1,0,0.1-0.1,0.1h-7.2
		v5.5h7.2c0.1,0,0.1,0,0.1,0.1v4c0,0.1,0,0.1-0.1,0.1h-7.2v6.1h7.2c0.1,0,0.1,0.1,0.1,0.2v4c0,0.1,0,0.1-0.1,0.1L287.1,253.5
		L287.1,253.5z"/>
	<path d="M203.2,283.5c-0.1,0-0.2-0.1-0.2-0.2l0.1-24c0-0.1,0-0.1,0.1-0.1h6.7c2.1,0,3.8,0.7,5.1,2c1.2,1.3,1.9,3.1,1.9,5.3
		c0,1.7-0.3,3.1-1,4.3c-0.7,1.2-1.5,2.1-2.6,2.8c-1,0.7-2.2,1-3.4,1h-2.7v8.8c0,0.1-0.1,0.2-0.2,0.2L203.2,283.5L203.2,283.5z
		 M207.3,270.3h2.7c0.7,0,1.4-0.4,1.9-1.1s0.8-1.6,0.8-2.8c0-0.9-0.2-1.7-0.7-2.2c-0.5-0.6-1.2-0.9-2-0.9h-2.7V270.3z"/>
	<path d="M219.2,283.5c-0.1,0-0.1-0.1-0.1-0.2l0.1-24c0-0.1,0-0.1,0.1-0.1h7.1c1.3,0,2.4,0.3,3.5,0.9s1.9,1.4,2.5,2.5
		c0.6,1,0.9,2.2,0.9,3.5c0,0.9-0.1,1.6-0.4,2.3c-0.3,0.7-0.6,1.3-0.9,1.7c-0.3,0.5-0.7,0.8-0.9,1.1c1.3,1.4,1.9,3,1.9,4.9v7.2
		c0,0.1-0.1,0.2-0.2,0.2h-4c-0.1,0-0.1,0-0.1-0.1v-7.2c0-0.8-0.3-1.6-0.9-2.2c-0.6-0.6-1.3-0.9-2.2-0.9h-2.3v10.3
		c0,0.1,0,0.2-0.1,0.2L219.2,283.5L219.2,283.5z M223.3,268.9h3c0.7,0,1.4-0.3,1.9-0.8c0.6-0.5,0.8-1.2,0.8-2c0-0.7-0.3-1.4-0.8-1.9
		s-1.2-0.8-1.9-0.8h-3V268.9z"/>
	<path d="M242.2,283.9c-1.3,0-2.4-0.3-3.4-1c-1-0.6-1.9-1.5-2.5-2.6s-0.9-2.2-0.9-3.5v-11.1c0-1.3,0.3-2.4,0.9-3.5
		c0.6-1,1.5-1.9,2.5-2.5s2.2-0.9,3.4-0.9c1.3,0,2.4,0.3,3.4,0.9s1.8,1.5,2.5,2.5c0.6,1,0.9,2.2,0.9,3.5v11.1c0,1.3-0.3,2.5-0.9,3.5
		c-0.6,1.1-1.4,1.9-2.5,2.6C244.6,283.6,243.5,283.9,242.2,283.9z M242.2,279.7c0.7,0,1.3-0.3,1.8-0.9s0.8-1.2,0.8-1.9v-11.1
		c0-0.8-0.2-1.4-0.7-2c-0.5-0.5-1.1-0.8-1.9-0.8c-0.7,0-1.3,0.3-1.9,0.8c-0.5,0.5-0.8,1.2-0.8,2v11.1c0,0.8,0.3,1.4,0.8,2
		C240.9,279.4,241.5,279.7,242.2,279.7z"/>
	<path d="M249.8,283.5c-0.1,0-0.1,0-0.1-0.1v-4c0-0.1,0-0.1,0.1-0.1h4c0.1,0,0.1,0,0.1,0.1v4c0,0.1,0,0.1-0.1,0.1H249.8z"/>
	<path d="M206.3,313.5c-0.1,0-0.2-0.1-0.2-0.2l-4.1-24c0-0.1,0-0.1,0.1-0.1h3.9c0.1,0,0.2,0,0.2,0.1l2.2,15.8l2.3-15.8
		c0-0.1,0.1-0.1,0.2-0.1h3.1c0.1,0,0.2,0,0.2,0.1l2.3,15.8l2.3-15.8c0-0.1,0.1-0.1,0.2-0.1h3.9c0.1,0,0.2,0,0.1,0.1l-4.2,24
		c0,0-0.1,0.1-0.2,0.2h-4.2c-0.1,0-0.1-0.1-0.2-0.2l-1.8-12.6l-1.8,12.6c0,0.1-0.1,0.2-0.2,0.2H206.3z"/>
	<path d="M225.2,313.5c-0.1,0-0.1-0.1-0.1-0.2v-24c0-0.1,0-0.1,0.1-0.1h11.2c0.1,0,0.1,0.1,0.1,0.2v3.9c0,0.1,0,0.1-0.1,0.1h-7.2
		v5.5h7.2c0.1,0,0.1,0,0.1,0.1v4c0,0.1,0,0.1-0.1,0.1h-7.2v6.1h7.2c0.1,0,0.1,0.1,0.1,0.2v4c0,0.1,0,0.1-0.1,0.1L225.2,313.5
		L225.2,313.5z"/>
	<path d="M239.9,313.5c-0.1,0-0.1-0.1-0.1-0.2l0.1-24c0-0.1,0-0.1,0.1-0.1h6.7c1.3,0,2.5,0.3,3.6,1c1,0.6,1.9,1.5,2.5,2.5
		s0.9,2.2,0.9,3.4c0,1-0.2,1.9-0.7,2.8s-1,1.6-1.6,2.1c0.7,0.7,1.2,1.5,1.6,2.3c0.4,0.9,0.6,1.8,0.6,2.8c0,1.4-0.3,2.6-1,3.7
		s-1.5,2-2.6,2.7s-2.3,1-3.7,1L239.9,313.5L239.9,313.5z M244,309.3h2.2c0.8,0,1.6-0.3,2.2-0.9c0.6-0.6,0.9-1.3,0.9-2.2
		c0-0.8-0.3-1.6-0.9-2.2c-0.6-0.6-1.3-0.9-2.2-0.9H244V309.3z M244,298.8h2.7c0.8,0,1.5-0.3,2-0.9s0.8-1.2,0.8-1.9
		c0-0.7-0.3-1.4-0.8-1.9s-1.2-0.8-1.9-0.8H244V298.8z"/>
</g>
<rect x="18.1" y="341" class="st0" width="3.1" height="0.2"/>
<g>
	<path d="M32.6,162.5c-0.1,0-0.2-0.1-0.2-0.2v-4c0,0,0-0.1,0.1-0.1l8.6-11.9c0.2-0.2,0.3-0.5,0.4-0.8c0.1-0.3,0.2-0.6,0.2-0.9
		c0-0.7-0.2-1.3-0.7-1.9c-0.5-0.6-1.1-0.9-1.9-0.9c-0.7,0-1.3,0.3-1.8,0.8s-0.8,1.2-0.8,2.1v1.7c0,0.1-0.1,0.2-0.2,0.2h-3.9
		c-0.1,0-0.1-0.1-0.1-0.2v-1.7c0-1.3,0.3-2.5,1-3.6c0.6-1.1,1.5-1.9,2.5-2.6c1-0.6,2.2-0.9,3.3-0.9c1.3,0,2.4,0.3,3.4,1
		c1,0.6,1.8,1.5,2.5,2.5c0.6,1,0.9,2.2,0.9,3.4c0,0.8-0.1,1.6-0.4,2.3c-0.3,0.8-0.6,1.5-1.1,2.1l-6.6,9.1h7.9c0.1,0,0.1,0,0.1,0.1v4
		c0,0.1,0,0.2-0.1,0.2H32.6V162.5z"/>
	<path d="M55.6,162.9c-1.5,0-2.8-0.3-4-1c-1.1-0.6-2-1.5-2.7-2.6c-0.6-1.1-1-2.2-1-3.5v-11.1c0-1.3,0.3-2.4,1-3.5
		c0.6-1,1.5-1.9,2.7-2.5c1.1-0.6,2.4-0.9,3.9-0.9s2.8,0.3,3.9,0.9c1.1,0.6,2,1.5,2.6,2.5s1,2.2,1,3.5v11.1c0,1.3-0.3,2.5-1,3.5
		c-0.6,1.1-1.5,1.9-2.7,2.6S57.1,162.9,55.6,162.9z M58.9,155.9v-11.1c0-0.8-0.3-1.5-0.9-2c-0.6-0.5-1.4-0.8-2.4-0.8
		s-1.8,0.3-2.4,0.8c-0.6,0.5-0.9,1.2-0.9,2v11.1c0,0.9,0.3,1.5,0.9,2c0.6,0.5,1.4,0.8,2.4,0.8s1.8-0.3,2.4-0.8
		C58.6,157.4,58.9,156.7,58.9,155.9z"/>
	<path d="M65.4,162.5c-0.1,0-0.2-0.1-0.2-0.2v-4c0,0,0-0.1,0.1-0.1l8.6-11.9c0.2-0.2,0.3-0.5,0.4-0.8s0.2-0.6,0.2-0.9
		c0-0.7-0.2-1.3-0.7-1.9c-0.5-0.6-1.1-0.9-1.9-0.9c-0.7,0-1.3,0.3-1.8,0.8s-0.8,1.2-0.8,2.1v1.7c0,0.1-0.1,0.2-0.2,0.2h-3.9
		c-0.1,0-0.1-0.1-0.1-0.2v-1.7c0-1.3,0.3-2.5,1-3.6c0.6-1.1,1.5-1.9,2.5-2.6c1-0.6,2.2-0.9,3.3-0.9c1.3,0,2.4,0.3,3.4,1
		c1,0.6,1.8,1.5,2.5,2.5c0.6,1,0.9,2.2,0.9,3.4c0,0.8-0.1,1.6-0.4,2.3c-0.3,0.8-0.6,1.5-1.1,2.1l-6.6,9.1h7.9c0.1,0,0.1,0,0.1,0.1v4
		c0,0.1,0,0.2-0.1,0.2H65.4V162.5z"/>
	<path d="M88.4,162.9c-1.5,0-2.8-0.3-4-1c-1.1-0.6-2-1.5-2.7-2.6c-0.6-1.1-1-2.2-1-3.5v-11.1c0-1.3,0.3-2.4,1-3.5
		c0.6-1,1.5-1.9,2.7-2.5c1.1-0.6,2.4-0.9,3.9-0.9s2.8,0.3,3.9,0.9c1.1,0.6,2,1.5,2.6,2.5s1,2.2,1,3.5v11.1c0,1.3-0.3,2.5-1,3.5
		c-0.6,1.1-1.5,1.9-2.7,2.6S89.9,162.9,88.4,162.9z M91.8,155.9v-11.1c0-0.8-0.3-1.5-0.9-2s-1.4-0.8-2.4-0.8s-1.8,0.3-2.4,0.8
		s-0.9,1.2-0.9,2v11.1c0,0.9,0.3,1.5,0.9,2s1.4,0.8,2.4,0.8s1.8-0.3,2.4-0.8S91.8,156.7,91.8,155.9z"/>
	<path d="M32.6,195.5c-0.1,0-0.2-0.1-0.2-0.2v-4c0,0,0-0.1,0.1-0.1l8.6-11.9c0.2-0.2,0.3-0.5,0.4-0.8c0.1-0.3,0.2-0.6,0.2-0.9
		c0-0.7-0.2-1.3-0.7-1.9c-0.5-0.6-1.1-0.9-1.9-0.9c-0.7,0-1.3,0.3-1.8,0.8s-0.8,1.2-0.8,2.1v1.7c0,0.1-0.1,0.2-0.2,0.2h-3.9
		c-0.1,0-0.1-0.1-0.1-0.2v-1.7c0-1.3,0.3-2.5,1-3.6c0.6-1.1,1.5-1.9,2.5-2.6c1-0.6,2.2-0.9,3.3-0.9c1.3,0,2.4,0.3,3.4,1
		c1,0.6,1.8,1.5,2.5,2.5c0.6,1,0.9,2.2,0.9,3.4c0,0.8-0.1,1.6-0.4,2.3c-0.3,0.8-0.6,1.5-1.1,2.1l-6.6,9.1h7.9c0.1,0,0.1,0,0.1,0.1v4
		c0,0.1,0,0.2-0.1,0.2H32.6V195.5z"/>
	<path d="M55.6,195.9c-1.5,0-2.8-0.3-4-1c-1.1-0.6-2-1.5-2.7-2.6c-0.6-1.1-1-2.2-1-3.5v-11.1c0-1.3,0.3-2.4,1-3.5
		c0.6-1,1.5-1.9,2.7-2.5c1.1-0.6,2.4-0.9,3.9-0.9s2.8,0.3,3.9,0.9c1.1,0.6,2,1.5,2.6,2.5s1,2.2,1,3.5v11.1c0,1.3-0.3,2.5-1,3.5
		c-0.6,1.1-1.5,1.9-2.7,2.6S57.1,195.9,55.6,195.9z M58.9,188.9v-11.1c0-0.8-0.3-1.5-0.9-2c-0.6-0.5-1.4-0.8-2.4-0.8
		s-1.8,0.3-2.4,0.8c-0.6,0.5-0.9,1.2-0.9,2v11.1c0,0.9,0.3,1.5,0.9,2c0.6,0.5,1.4,0.8,2.4,0.8s1.8-0.3,2.4-0.8
		C58.6,190.4,58.9,189.7,58.9,188.9z"/>
	<path d="M65.4,195.5c-0.1,0-0.2-0.1-0.2-0.2v-4c0,0,0-0.1,0.1-0.1l8.6-11.9c0.2-0.2,0.3-0.5,0.4-0.8s0.2-0.6,0.2-0.9
		c0-0.7-0.2-1.3-0.7-1.9c-0.5-0.6-1.1-0.9-1.9-0.9c-0.7,0-1.3,0.3-1.8,0.8s-0.8,1.2-0.8,2.1v1.7c0,0.1-0.1,0.2-0.2,0.2h-3.9
		c-0.1,0-0.1-0.1-0.1-0.2v-1.7c0-1.3,0.3-2.5,1-3.6c0.6-1.1,1.5-1.9,2.5-2.6c1-0.6,2.2-0.9,3.3-0.9c1.3,0,2.4,0.3,3.4,1
		c1,0.6,1.8,1.5,2.5,2.5c0.6,1,0.9,2.2,0.9,3.4c0,0.8-0.1,1.6-0.4,2.3c-0.3,0.8-0.6,1.5-1.1,2.1l-6.6,9.1h7.9c0.1,0,0.1,0,0.1,0.1v4
		c0,0.1,0,0.2-0.1,0.2H65.4V195.5z"/>
	<path d="M80.8,195.5c-0.1,0-0.2-0.1-0.2-0.2v-4c0,0,0-0.1,0.1-0.1l8.6-11.9c0.2-0.2,0.3-0.5,0.4-0.8s0.2-0.6,0.2-0.9
		c0-0.7-0.2-1.3-0.7-1.9c-0.5-0.6-1.1-0.9-1.9-0.9c-0.7,0-1.3,0.3-1.8,0.8s-0.8,1.2-0.8,2.1v1.7c0,0.1-0.1,0.2-0.2,0.2h-3.9
		c-0.1,0-0.1-0.1-0.1-0.2v-1.7c0-1.3,0.3-2.5,1-3.6c0.6-1.1,1.5-1.9,2.5-2.6c1-0.6,2.2-0.9,3.3-0.9c1.3,0,2.4,0.3,3.4,1
		c1,0.6,1.8,1.5,2.5,2.5c0.6,1,0.9,2.2,0.9,3.4c0,0.8-0.1,1.6-0.4,2.3c-0.3,0.8-0.6,1.5-1.1,2.1L86,191h7.9c0.1,0,0.1,0,0.1,0.1v4
		c0,0.1,0,0.2-0.1,0.2H80.8V195.5z"/>
</g>
</svg>
