<?xml version="1.0" encoding="utf-8"?>
<!-- Generator: Adobe Illustrator 24.0.0, SVG Export Plug-In . SVG Version: 6.00 Build 0)  -->
<svg version="1.1" id="Calque_1" xmlns="http://www.w3.org/2000/svg" xmlns:xlink="http://www.w3.org/1999/xlink" x="0px" y="0px"
	 viewBox="0 0 82.7 62.2" style="enable-background:new 0 0 82.7 62.2;" xml:space="preserve">
<style type="text/css">
	.st0{fill:none;stroke:#000000;stroke-width:3;stroke-miterlimit:10;}
</style>
<path class="st0" d="M81.2,28.3c0,14.8-17.5,26.8-39.2,26.8c-4.4,0-8.7-0.5-12.7-1.4C22.9,63,6.6,60.3,6.6,60.3
	c7.5-2.3,9.6-7.4,9.9-11.7C8.2,43.7,2.9,36.5,2.9,28.3c0-14.8,17.5-26.8,39.1-26.8C63.7,1.5,81.2,13.5,81.2,28.3z"/>
<g>
	<path d="M22.3,29.3c0-2.6,1.8-4.5,4.3-4.5c2.5,0,4.2,1.9,4.2,4.5c0,2.6-1.6,4.5-4.3,4.5C24,33.8,22.3,31.9,22.3,29.3z"/>
	<path d="M37.1,29.3c0-2.6,1.8-4.5,4.3-4.5c2.5,0,4.2,1.9,4.2,4.5c0,2.6-1.6,4.5-4.3,4.5C38.8,33.8,37.1,31.9,37.1,29.3z"/>
	<path d="M51.9,29.3c0-2.6,1.8-4.5,4.3-4.5c2.5,0,4.2,1.9,4.2,4.5c0,2.6-1.6,4.5-4.3,4.5C53.6,33.8,51.9,31.9,51.9,29.3z"/>
</g>
</svg>
