<?xml version="1.0" encoding="utf-8"?>
<!-- Generator: Adobe Illustrator 24.0.0, SVG Export Plug-In . SVG Version: 6.00 Build 0)  -->
<svg version="1.1" id="Calque_1" xmlns="http://www.w3.org/2000/svg" xmlns:xlink="http://www.w3.org/1999/xlink" x="0px" y="0px"
	 viewBox="0 0 85.3 63.2" style="enable-background:new 0 0 85.3 63.2;" xml:space="preserve">
<style type="text/css">
	.st0{fill:none;stroke:#000000;stroke-width:4;stroke-miterlimit:10;}
</style>
<path class="st0" d="M83.3,28.8c0,14.8-17.5,26.8-39.2,26.8c-4.4,0-8.7-0.5-12.7-1.4C25,63.5,8.7,60.8,8.7,60.8
	c7.5-2.3,9.6-7.4,9.9-11.7C10.3,44.2,5,37,5,28.8C5,14,22.5,2,44.1,2C65.8,2,83.3,14,83.3,28.8z"/>
<g>
	<path d="M24.4,29.8c0-2.6,1.8-4.5,4.3-4.5s4.2,1.9,4.2,4.5s-1.6,4.5-4.3,4.5C26.1,34.3,24.4,32.4,24.4,29.8z"/>
	<path d="M39.2,29.8c0-2.6,1.8-4.5,4.3-4.5s4.2,1.9,4.2,4.5s-1.6,4.5-4.3,4.5C40.9,34.3,39.2,32.4,39.2,29.8z"/>
	<path d="M54,29.8c0-2.6,1.8-4.5,4.3-4.5s4.2,1.9,4.2,4.5s-1.6,4.5-4.3,4.5C55.7,34.3,54,32.4,54,29.8z"/>
</g>
</svg>
