<svg id="Calque_1" data-name="Calque 1" xmlns="http://www.w3.org/2000/svg" viewBox="0 0 748 748"><defs><style>.cls-1{fill:#fff;}</style></defs><title>soleil</title><circle class="cls-1" cx="374" cy="374" r="251"/><path class="cls-1" d="M422,3.05v98.1a279.67,279.67,0,0,0-96,0V3.05a379.23,379.23,0,0,1,96,0Z"/><path class="cls-1" d="M215,147.14A278.43,278.43,0,0,0,147.14,215L77.78,145.66a376,376,0,0,1,67.88-67.88Z"/><path class="cls-1" d="M97,374a278.12,278.12,0,0,0,4.15,48H3.05a379.23,379.23,0,0,1,0-96h98.1A278.12,278.12,0,0,0,97,374Z"/><path class="cls-1" d="M215,600.86l-69.36,69.36a376,376,0,0,1-67.88-67.88L147.14,533A278.43,278.43,0,0,0,215,600.86Z"/><path class="cls-1" d="M422,646.85V745a379.23,379.23,0,0,1-96,0v-98.1a279.67,279.67,0,0,0,96,0Z"/><path class="cls-1" d="M670.22,602.34a376,376,0,0,1-67.88,67.88L533,600.86A278.43,278.43,0,0,0,600.86,533Z"/><path class="cls-1" d="M748,374a378.32,378.32,0,0,1-3,48h-98.1a279.67,279.67,0,0,0,0-96H745A378.32,378.32,0,0,1,748,374Z"/><path class="cls-1" d="M670.22,145.66,600.86,215A278.43,278.43,0,0,0,533,147.14l69.36-69.36A376,376,0,0,1,670.22,145.66Z"/></svg>