<svg id="Calque_1" data-name="Calque 1" xmlns="http://www.w3.org/2000/svg" viewBox="0 0 1080 1080"><defs><style>.cls-1{fill:#fff;}</style></defs><title>soleil</title><circle class="cls-1" cx="540" cy="540" r="277"/><path class="cls-1" d="M571,0V190.29Q555.67,189,540,189t-31,1.29V0Z"/><path class="cls-1" d="M312.12,268.28A355.6,355.6,0,0,0,267.17,311L136.24,180.08l43.84-43.84Z"/><path class="cls-1" d="M180,540q0,15.68,1.39,31H0V509H181.39Q180,524.32,180,540Z"/><path class="cls-1" d="M312.12,811.72l-132,132-43.84-43.84L267.17,769A355.6,355.6,0,0,0,312.12,811.72Z"/><path class="cls-1" d="M571,889.71V1080H509V889.71Q524.33,891,540,891T571,889.71Z"/><path class="cls-1" d="M943.76,899.92l-43.84,43.84-132-132a355.6,355.6,0,0,0,45-42.73Z"/><path class="cls-1" d="M1080,509v62H898.61Q900,555.68,900,540t-1.39-31Z"/><path class="cls-1" d="M943.76,180.08,812.83,311a355.6,355.6,0,0,0-45-42.73l132-132Z"/></svg>