<?xml version="1.0" encoding="utf-8"?>
<!-- Generator: Adobe Illustrator 24.0.0, SVG Export Plug-In . SVG Version: 6.00 Build 0)  -->
<svg version="1.1" id="Calque_1" xmlns="http://www.w3.org/2000/svg" xmlns:xlink="http://www.w3.org/1999/xlink" x="0px" y="0px"
	 viewBox="0 0 692.1 692.1" style="enable-background:new 0 0 692.1 692.1;" xml:space="preserve">
<style type="text/css">
	.st0{fill:#FFFFFF;}
</style>
<g>
	<path class="st0" d="M346.1,668.6c-86.2,0-167.2-33.6-228.1-94.5c-60.9-60.9-94.5-141.9-94.5-228.1c0-86.2,33.6-167.2,94.5-228.1
		c60.9-60.9,141.9-94.5,228.1-94.5S513.2,57.1,574.1,118c60.9,60.9,94.5,141.9,94.5,228.1s-33.6,167.2-94.5,228.1
		C513.2,635.1,432.2,668.6,346.1,668.6z"/>
	<path d="M346.1,47c40.4,0,79.6,7.9,116.4,23.5c35.6,15.1,67.6,36.6,95.1,64.1c27.5,27.5,49,59.5,64.1,95.1
		c15.6,36.8,23.5,76,23.5,116.4s-7.9,79.6-23.5,116.4c-15.1,35.6-36.6,67.6-64.1,95.1c-27.5,27.5-59.5,49-95.1,64.1
		c-36.8,15.6-76,23.5-116.4,23.5s-79.6-7.9-116.4-23.5c-35.6-15.1-67.6-36.6-95.1-64.1c-27.5-27.5-49-59.5-64.1-95.1
		C54.9,425.6,47,386.4,47,346.1s7.9-79.6,23.5-116.4c15.1-35.6,36.6-67.6,64.1-95.1c27.5-27.5,59.5-49,95.1-64.1
		C266.5,54.9,305.7,47,346.1,47 M346.1,0C154.9,0,0,154.9,0,346.1s154.9,346.1,346.1,346.1c191.1,0,346.1-154.9,346.1-346.1
		S537.2,0,346.1,0L346.1,0z"/>
</g>
<path d="M272.8,327v212h147.6V327h103c-0.6,0.6-176.2-196.2-176.2-196.2L168.7,327H272.8z"/>
</svg>
